<?xml version="1.0" standalone="no"?>
<!DOCTYPE svg PUBLIC "-//W3C//DTD SVG 20010904//EN"
 "http://www.w3.org/TR/2001/REC-SVG-20010904/DTD/svg10.dtd">
<svg version="1.0" xmlns="http://www.w3.org/2000/svg"
 width="1280.000000pt" height="763.000000pt" viewBox="0 0 1280.000000 763.000000"
 preserveAspectRatio="xMidYMid meet">
<metadata>
Created by potrace 1.15, written by Peter Selinger 2001-2017
</metadata>
<g transform="translate(0.000000,763.000000) scale(0.100000,-0.100000)"
fill="#000000" stroke="none">
<path d="M5955 7620 c-939 -84 -1771 -569 -2268 -1325 -88 -134 -216 -383
-266 -520 l-34 -91 -281 1 c-296 0 -398 -8 -636 -51 -756 -138 -1427 -532
-1889 -1109 -157 -196 -338 -520 -426 -759 -196 -535 -204 -1152 -21 -1693
134 -397 336 -727 631 -1032 521 -537 1177 -851 1970 -942 141 -16 537 -17
680 -1 475 54 925 197 1297 413 36 22 71 39 78 39 6 0 40 -25 77 -56 221 -188
558 -352 878 -427 207 -49 322 -61 565 -61 256 0 384 15 595 69 300 77 553
196 777 366 63 47 99 68 113 65 11 -2 67 -20 125 -41 139 -48 317 -90 470
-111 168 -22 464 -23 630 0 459 62 871 244 1190 525 52 45 58 47 75 34 54 -40
198 -119 293 -159 346 -148 748 -162 1104 -38 866 302 1327 1300 1022 2213
-188 563 -648 990 -1196 1111 l-56 13 -42 129 c-24 73 -76 198 -121 286 -132
266 -266 449 -486 662 -225 220 -465 385 -745 511 -303 138 -616 219 -960 250
l-137 12 -26 61 c-14 33 -52 105 -83 161 -453 809 -1283 1357 -2242 1480 -148
19 -513 27 -655 15z"/>
</g>
</svg>
