<?xml version="1.0" standalone="no"?>
<!DOCTYPE svg PUBLIC "-//W3C//DTD SVG 20010904//EN"
 "http://www.w3.org/TR/2001/REC-SVG-20010904/DTD/svg10.dtd">
<svg version="1.0" xmlns="http://www.w3.org/2000/svg"
 width="1193.000000pt" height="1280.000000pt" viewBox="0 0 1193.000000 1280.000000"
 preserveAspectRatio="xMidYMid meet">
<metadata>
Created by potrace 1.15, written by Peter Selinger 2001-2017
</metadata>
<g transform="translate(0.000000,1280.000000) scale(0.100000,-0.100000)"
fill="#000000" stroke="none">
<path d="M10990 12793 c-1598 -62 -2854 -181 -3740 -354 -851 -167 -1788 -561
-2600 -1093 -85 -56 -204 -128 -265 -160 -552 -295 -1182 -781 -1922 -1483
l-151 -144 -367 280 c-272 209 -373 281 -393 281 -35 0 -132 -106 -132 -143 0
-20 73 -94 340 -347 187 -178 340 -326 340 -330 0 -5 -17 -30 -38 -57 -126
-161 -457 -638 -644 -928 -248 -385 -431 -704 -574 -1000 -165 -345 -246 -578
-323 -940 -17 -77 -56 -210 -87 -295 -228 -626 -357 -1303 -414 -2170 -18
-269 -23 -866 -11 -1183 27 -706 99 -1408 212 -2072 35 -205 55 -305 63 -312
12 -12 36 8 36 30 0 75 249 551 425 815 l63 93 9 -37 9 -38 93 174 c51 96 107
193 124 215 121 156 400 442 572 586 414 346 854 577 1011 530 l31 -9 38 87
c306 695 1083 1718 2041 2687 254 257 478 450 836 718 l116 87 1959 -1732
c1077 -952 1965 -1738 1973 -1745 12 -12 9 -19 -24 -53 l-38 -39 299 -264
c857 -759 1108 -981 1320 -1166 250 -218 325 -303 395 -445 89 -179 91 -369 6
-456 -52 -54 -109 -74 -218 -79 -166 -7 -347 56 -444 154 -87 88 -192 260
-272 447 -24 57 -43 87 -53 87 -9 0 -25 3 -36 6 -15 4 -43 -14 -105 -66 -47
-40 -86 -76 -88 -81 -5 -13 66 -185 124 -299 147 -288 288 -422 536 -508 98
-34 109 -36 233 -36 103 1 143 5 192 21 203 67 383 246 450 446 24 73 27 96
27 217 -1 117 -4 147 -28 223 -47 155 -86 219 -205 337 -181 180 -1863 1703
-1886 1708 -7 2 -26 -14 -43 -34 l-30 -37 -35 29 c-19 16 -903 798 -1965 1738
l-1931 1709 107 75 c59 41 166 114 238 162 l130 88 13 68 c17 96 89 307 150
444 196 435 564 1006 1023 1588 362 459 502 618 832 947 345 344 673 636 1052
937 l121 96 6 83 c6 91 40 218 89 338 31 78 57 111 87 111 9 0 22 9 29 20 11
18 10 20 -8 20 -35 0 -23 40 46 150 168 268 413 552 645 747 233 196 535 379
767 465 61 23 107 62 98 84 -5 14 -33 15 -236 7z"/>
</g>
</svg>
