<?xml version="1.0" standalone="no"?>
<!DOCTYPE svg PUBLIC "-//W3C//DTD SVG 20010904//EN"
 "http://www.w3.org/TR/2001/REC-SVG-20010904/DTD/svg10.dtd">
<svg version="1.0" xmlns="http://www.w3.org/2000/svg"
 width="1280.000000pt" height="1252.000000pt" viewBox="0 0 1280.000000 1252.000000"
 preserveAspectRatio="xMidYMid meet">
<metadata>
Created by potrace 1.15, written by Peter Selinger 2001-2017
</metadata>
<g transform="translate(0.000000,1252.000000) scale(0.100000,-0.100000)"
fill="#000000" stroke="none">
<path d="M7005 11874 c-179 -24 -293 -57 -410 -117 -156 -81 -285 -208 -342
-337 -14 -30 -26 -56 -28 -58 -2 -2 -45 10 -97 26 -196 63 -482 100 -684 87
l-111 -7 -54 35 c-204 130 -418 194 -689 204 -239 9 -446 -31 -646 -127 -228
-107 -372 -242 -465 -434 -21 -43 -40 -81 -43 -83 -2 -2 -55 12 -116 31 -126
40 -296 78 -440 97 -142 20 -507 17 -655 -4 -496 -72 -902 -263 -1200 -562
-61 -60 -134 -144 -162 -186 -100 -145 -172 -315 -204 -479 -16 -83 -16 -307
0 -385 37 -176 109 -345 205 -479 l57 -79 -30 -83 c-118 -326 -147 -696 -81
-1039 92 -473 376 -942 783 -1291 56 -48 108 -93 115 -100 11 -9 4 -37 -42
-154 -110 -279 -247 -562 -409 -845 -105 -183 -160 -300 -191 -407 -102 -354
-24 -655 237 -905 97 -92 175 -146 312 -213 352 -173 655 -171 1006 5 256 128
436 300 534 508 48 102 66 176 72 297 6 125 -16 249 -67 378 -32 79 -53 117
-239 422 -70 114 -191 339 -191 354 0 3 16 -2 35 -10 20 -8 113 -37 208 -65
633 -183 1345 -222 2013 -109 66 11 125 22 132 25 6 2 12 2 12 -2 0 -6 -129
-205 -1131 -1753 -202 -311 -366 -566 -365 -567 2 -3 262 29 1311 157 275 34
610 74 745 91 135 16 255 31 268 33 12 2 22 0 22 -3 0 -7 0 -7 -1528 -1810
-585 -689 -1061 -1258 -1059 -1265 2 -6 11 -11 18 -10 15 1 263 198 2899 2305
795 635 1622 1295 1838 1468 216 172 391 315 390 317 -2 1 -84 -13 -183 -31
-99 -19 -376 -70 -615 -115 -749 -139 -2088 -390 -2242 -419 -82 -15 -148 -27
-148 -26 0 4 531 526 1073 1056 591 577 623 607 716 660 122 70 177 107 266
179 65 52 73 56 105 49 525 -115 1178 -101 1712 38 l98 25 47 -40 c234 -195
588 -328 926 -349 l106 -6 -50 -100 c-49 -97 -74 -143 -211 -387 -140 -250
-188 -408 -189 -615 0 -111 3 -143 25 -218 48 -164 122 -283 252 -407 154
-147 353 -254 589 -316 107 -29 352 -26 460 4 443 125 768 413 860 762 26 97
24 271 -4 383 -39 152 -83 246 -206 437 -86 133 -172 284 -244 427 -62 124
-171 373 -171 391 0 5 30 41 66 78 230 241 322 548 249 834 -41 158 -159 347
-293 470 -78 72 -228 174 -325 222 -78 38 -73 14 -42 186 83 465 -61 971 -393
1383 -222 275 -591 556 -938 714 l-71 33 8 48 c13 80 10 255 -6 346 -31 178
-122 383 -239 539 -78 104 -242 262 -355 343 -373 268 -846 412 -1371 420
-151 2 -157 3 -222 34 -76 35 -174 65 -263 81 -66 12 -263 22 -310 15z"/>
<path d="M9173 4233 c-60 -11 -97 -99 -198 -456 -150 -531 -322 -939 -617
-1460 -100 -177 -136 -252 -173 -361 -71 -212 -73 -411 -5 -602 73 -210 282
-425 538 -553 149 -75 368 -131 510 -131 256 0 606 151 820 355 132 125 218
257 263 405 34 109 34 318 0 440 -32 115 -102 260 -198 411 -259 401 -405 729
-630 1414 -139 421 -176 501 -249 531 -18 8 -35 13 -36 13 -2 -1 -13 -4 -25
-6z"/>
</g>
</svg>
