<?xml version="1.0" standalone="no"?>
<!DOCTYPE svg PUBLIC "-//W3C//DTD SVG 20010904//EN"
 "http://www.w3.org/TR/2001/REC-SVG-20010904/DTD/svg10.dtd">
<svg version="1.0" xmlns="http://www.w3.org/2000/svg"
 width="1280.000000pt" height="860.000000pt" viewBox="0 0 1280.000000 860.000000"
 preserveAspectRatio="xMidYMid meet">
<metadata>
Created by potrace 1.15, written by Peter Selinger 2001-2017
</metadata>
<g transform="translate(0.000000,860.000000) scale(0.100000,-0.100000)"
fill="#000000" stroke="none">
<path d="M6028 8165 c-88 -32 -144 -84 -272 -254 -142 -188 -195 -225 -317
-226 -73 0 -81 2 -195 59 -150 75 -188 86 -288 86 -181 0 -369 -72 -741 -284
-249 -141 -431 -221 -575 -252 -88 -18 -263 -18 -396 2 -133 20 -341 22 -449
5 -162 -26 -377 -72 -432 -93 -100 -37 -151 -110 -105 -151 26 -24 62 -35 154
-47 141 -19 200 -60 183 -127 -4 -16 -48 -68 -108 -129 -73 -72 -120 -129
-165 -202 -74 -119 -121 -169 -198 -206 -109 -54 -167 -60 -529 -61 -276 0
-363 4 -532 23 -222 25 -379 29 -440 13 -48 -13 -93 -52 -93 -81 0 -55 42 -83
185 -124 140 -40 255 -103 380 -207 127 -106 187 -137 296 -153 42 -6 81 -14
84 -18 4 -4 -2 -19 -14 -34 -48 -61 -31 -64 252 -37 190 18 232 15 472 -32 39
-8 145 -15 237 -17 138 -2 165 -5 158 -17 -4 -8 -5 -22 -3 -32 6 -23 0 -24
-33 -3 -19 13 -28 14 -37 5 -9 -9 -3 -20 30 -47 57 -47 59 -74 3 -42 -29 17
-42 20 -50 12 -9 -9 3 -24 44 -60 63 -54 69 -69 27 -59 -27 6 -29 4 -24 -16 4
-16 2 -20 -8 -17 -8 3 -26 33 -40 67 -14 34 -30 61 -35 59 -5 -2 -8 -22 -7
-45 2 -24 -2 -43 -7 -43 -6 0 -21 25 -35 56 -27 61 -50 65 -43 8 3 -28 1 -33
-11 -29 -51 20 -71 -11 -30 -44 l22 -17 -32 -13 c-17 -8 -31 -18 -31 -23 0
-18 31 -20 70 -4 22 8 47 13 55 9 12 -4 6 -12 -24 -30 -70 -41 -49 -64 31 -33
29 11 62 20 72 20 19 0 19 0 0 -21 -16 -17 -16 -22 -4 -29 8 -6 20 -10 25 -10
6 0 2 -5 -7 -10 -11 -7 -32 -7 -60 0 -24 5 -53 10 -65 10 -36 0 -27 -27 12
-40 48 -16 46 -34 -2 -25 -58 12 -76 11 -80 -3 -3 -7 9 -18 27 -25 27 -12 29
-15 16 -27 -9 -7 -16 -21 -16 -31 0 -21 21 -25 51 -9 17 10 19 7 19 -25 0 -48
21 -41 35 11 18 68 29 75 35 21 8 -80 24 -67 50 41 12 47 30 57 30 16 0 -26 1
-26 25 -10 40 27 31 -4 -15 -49 -22 -21 -40 -47 -40 -57 0 -23 4 -23 48 7 49
34 54 13 8 -34 -51 -53 -46 -81 8 -46 23 15 24 15 35 -15 13 -37 35 -35 39 3
4 32 5 32 38 11 17 -12 28 -14 35 -7 8 8 -1 24 -26 52 -43 48 -41 63 5 31 23
-17 34 -20 43 -11 8 8 -1 23 -36 59 -49 50 -63 81 -28 62 28 -15 31 -13 31 17
0 42 22 12 40 -54 19 -72 40 -82 40 -19 0 64 18 58 22 -6 4 -63 25 -72 43 -19
7 22 14 30 19 23 12 -20 46 -14 46 7 0 11 -4 23 -10 26 -17 11 -11 23 18 37
41 20 28 33 -32 33 -69 0 -78 10 -32 31 38 18 49 44 19 44 -10 0 -42 -7 -70
-14 -55 -15 -75 -8 -47 15 14 11 13 15 -8 32 -23 19 -23 19 37 12 92 -11 98
-11 102 3 3 8 -11 19 -36 29 -58 23 -38 39 28 23 27 -6 55 -8 62 -4 7 4 9 3 6
-3 -7 -11 67 -65 138 -100 22 -12 94 -33 160 -48 125 -29 208 -66 290 -128 30
-23 52 -34 63 -29 15 5 15 4 0 -12 -10 -9 -18 -31 -18 -47 0 -29 -1 -30 -22
-15 -53 37 -94 6 -58 -44 l20 -28 -40 -7 c-83 -14 -58 -45 36 -45 46 0 63 -4
68 -15 4 -10 -3 -17 -22 -20 -63 -13 -84 -21 -85 -30 -1 -13 44 -22 114 -24
68 -1 100 -25 49 -36 -35 -8 -37 -15 -10 -40 17 -16 18 -20 6 -27 -9 -5 -38 6
-82 32 -38 22 -77 40 -86 40 -30 0 -20 -26 22 -63 22 -19 40 -37 40 -40 0 -16
-38 -5 -80 23 -71 47 -111 33 -55 -20 32 -30 31 -36 -5 -49 -53 -18 -34 -57
27 -53 l32 3 -15 -36 c-8 -20 -12 -40 -9 -45 13 -21 32 -8 63 45 18 30 40 55
49 55 16 0 15 -9 -8 -67 -10 -24 -10 -36 -2 -44 17 -17 27 -6 68 67 33 59 58
84 71 72 2 -3 0 -18 -6 -33 -10 -27 -10 -27 20 -23 51 8 33 -22 -39 -64 -78
-45 -88 -55 -74 -69 7 -7 26 -4 62 10 49 18 51 18 51 1 0 -12 -20 -30 -55 -50
-30 -17 -57 -36 -61 -42 -8 -13 16 -29 34 -23 53 19 58 18 54 -18 -2 -19 1
-38 7 -41 20 -13 49 4 56 32 l7 27 29 -35 c26 -31 31 -33 44 -19 14 13 12 21
-15 71 -40 74 -31 106 13 48 32 -42 67 -53 67 -22 0 9 -16 44 -36 76 -38 64
-40 104 -3 70 17 -16 22 -16 29 -4 6 8 10 21 10 29 0 19 13 5 15 -17 12 -141
25 -184 46 -151 5 8 11 33 15 57 12 79 38 41 28 -40 -5 -38 -3 -52 7 -59 23
-14 28 -11 39 32 l11 41 23 -21 c27 -26 51 -27 66 -3 10 15 11 15 6 0 -3 -9 0
-19 7 -22 14 -5 -16 -9 -55 -6 -22 1 -28 -3 -28 -19 0 -24 15 -26 50 -6 36 20
38 19 42 -22 4 -48 33 -58 48 -16 6 15 13 35 17 43 3 8 5 19 4 23 -1 5 3 5 9
2 6 -4 9 -10 6 -13 -9 -8 35 -52 51 -52 22 0 15 24 -18 60 -17 19 -27 29 -23
21 4 -8 3 -12 -2 -8 -9 5 -10 26 -5 75 0 9 20 -2 50 -27 27 -23 52 -41 55 -41
11 0 6 25 -10 48 -13 20 -18 21 -32 10 -15 -12 -16 -11 -4 4 12 15 10 22 -12
51 -23 30 -35 77 -21 77 3 0 17 -7 30 -16 24 -16 25 -16 25 9 0 14 4 28 9 31
16 10 28 -18 36 -78 14 -121 40 -141 50 -41 7 64 8 65 26 49 12 -11 19 -32 20
-58 2 -95 34 -129 45 -47 5 39 10 48 22 44 11 -5 13 -3 7 8 -5 8 -5 11 1 6 5
-5 9 -12 9 -15 1 -17 18 -32 36 -32 22 0 27 38 7 58 -19 19 -33 14 -15 -6 19
-20 22 -42 8 -42 -6 0 -13 5 -17 12 -4 7 -3 8 4 4 20 -12 14 6 -10 32 -13 14
-17 22 -10 18 6 -4 12 -3 12 2 0 5 18 14 40 21 24 7 40 18 40 27 0 13 -12 15
-67 13 -66 -3 -98 4 -88 20 2 5 17 11 32 14 117 23 101 52 -29 52 -60 0 -92 4
-95 12 -2 6 10 14 26 18 36 8 39 20 11 37 -11 7 -20 16 -20 20 0 16 42 7 107
-22 36 -16 70 -30 74 -30 11 0 12 40 2 40 -5 1 -23 14 -41 29 -25 22 -30 30
-18 34 9 4 33 -11 61 -35 43 -38 48 -40 63 -25 15 15 14 19 -6 46 -12 17 -22
33 -22 36 0 9 113 5 235 -10 168 -20 196 -19 315 16 116 33 171 34 370 3 247
-38 368 -83 630 -232 305 -174 650 -328 717 -320 15 2 35 -3 43 -10 8 -7 26
-22 40 -32 24 -18 24 -19 2 -13 -18 4 -21 2 -15 -12 11 -31 -13 -8 -27 25 -7
16 -19 30 -26 30 -17 0 -17 -1 -4 -34 13 -35 4 -33 -15 4 -19 37 -35 39 -35 4
0 -14 -4 -23 -9 -19 -18 10 -23 -16 -6 -29 17 -12 17 -13 1 -19 -10 -4 -14
-11 -11 -17 4 -6 17 -4 35 5 40 21 50 18 21 -6 -33 -27 -18 -36 24 -16 42 20
49 21 39 6 -3 -6 0 -15 7 -20 9 -6 -3 -9 -33 -9 -53 0 -62 -13 -20 -28 27 -10
26 -10 -10 -11 -38 -1 -51 -14 -24 -24 9 -4 12 -14 9 -28 -5 -18 -3 -20 16
-14 16 5 21 2 21 -10 0 -31 25 -9 29 26 3 29 5 31 10 11 9 -35 25 -27 32 15 3
21 7 32 8 24 0 -7 7 -11 16 -7 19 7 19 -5 0 -30 -8 -10 -15 -25 -15 -33 0 -11
4 -11 18 2 26 24 36 21 18 -5 -23 -33 -21 -51 4 -38 11 6 20 7 20 2 0 -4 19
-12 42 -18 28 -6 44 -15 46 -26 3 -15 -4 -18 -48 -18 -73 0 -61 -22 21 -38 75
-15 111 -45 60 -50 -30 -3 -30 -4 -15 -28 15 -23 15 -24 -4 -24 -11 0 -42 20
-70 45 -47 42 -72 55 -72 37 0 -13 50 -77 60 -77 4 0 12 -4 17 -8 4 -5 4 -8
-2 -7 -5 1 -21 2 -35 0 -23 -1 -24 -2 -5 -11 l20 -9 -20 3 c-11 1 -19 7 -18
12 3 14 -58 75 -74 75 -18 0 -16 -25 2 -40 25 -21 18 -40 -16 -40 -44 0 -37
-34 9 -38 38 -4 38 -5 11 -48 -28 -46 -4 -46 41 1 19 19 42 35 52 35 23 0 23
-3 -8 -56 -33 -56 -13 -59 39 -6 51 52 47 66 -4 17 -33 -32 -38 -34 -24 -12 9
15 22 27 27 27 5 0 6 6 2 13 -4 6 -3 9 1 4 5 -4 17 1 28 10 11 10 17 12 13 5
-6 -10 -1 -11 18 -6 20 5 26 2 26 -9 0 -9 -4 -19 -10 -22 -21 -13 -10 -27 16
-21 21 6 25 3 22 -10 -2 -12 -24 -23 -65 -35 -70 -19 -83 -26 -83 -41 0 -7 19
-8 55 -3 84 10 71 -21 -19 -46 -57 -16 -62 -33 -10 -37 29 -3 34 -6 29 -20
-18 -43 -17 -52 3 -52 19 0 42 25 39 42 -1 3 2 10 7 15 5 5 6 3 2 -4 -4 -7 -3
-13 1 -13 5 0 14 -13 20 -30 18 -47 37 -38 29 13 -11 75 -11 80 0 84 6 2 19
-15 29 -37 18 -39 29 -48 39 -32 3 4 -2 36 -11 70 -15 60 -13 92 6 92 5 0 13
-10 17 -22 l7 -22 19 24 c16 20 21 21 29 9 5 -7 7 -18 5 -24 -24 -71 -38 -127
-33 -132 10 -9 34 14 47 47 9 22 18 29 33 26 12 -1 23 -9 25 -17 3 -11 2 -12
-6 -1 -7 11 -10 10 -16 -3 -9 -24 -8 -27 6 -19 7 4 8 3 4 -5 -4 -6 -11 -9 -16
-6 -11 7 -40 -34 -40 -57 0 -25 19 -22 42 7 25 32 34 32 42 -1 5 -17 12 -24
24 -22 13 3 16 13 15 41 -2 35 -1 37 23 31 39 -10 49 -10 53 1 4 9 -91 69
-114 72 -5 1 -11 7 -13 15 -2 9 0 8 7 -2 8 -11 11 -12 11 -2 0 9 13 13 43 12
93 -4 92 12 -3 40 -38 11 -72 25 -75 30 -4 6 -10 8 -15 5 -5 -3 -12 0 -16 7
-4 7 -4 10 0 6 10 -8 66 11 66 22 0 5 -4 12 -10 15 -16 10 -12 25 6 25 9 0 43
-23 75 -51 47 -40 60 -48 65 -35 4 9 -5 28 -20 47 -33 39 -33 53 0 45 19 -5
24 -4 18 6 -6 10 -3 9 9 -1 20 -16 23 -25 5 -15 -7 4 3 -9 21 -29 19 -21 39
-37 43 -37 13 0 9 24 -8 48 -13 19 -18 21 -32 10 -12 -9 -11 -6 2 10 11 12 29
22 41 22 13 0 27 6 34 13 15 19 -5 37 -42 37 -16 0 -27 3 -25 8 2 4 10 19 17
35 23 45 2 45 -35 -1 -24 -28 -44 -42 -60 -42 -30 0 -30 2 2 50 40 60 21 61
-39 2 -56 -55 -94 -69 -82 -31 5 16 4 19 -5 14 -9 -5 -11 -4 -6 4 4 6 11 9 16
6 5 -3 11 -1 15 5 4 6 -6 10 -24 10 -23 0 -31 5 -31 18 0 14 -2 15 -10 2 -5
-8 -10 -10 -10 -4 0 6 8 18 17 25 14 12 15 12 9 0 -10 -15 1 -12 92 21 69 26
68 42 -3 36 -30 -3 -55 -2 -55 1 1 18 22 33 69 49 62 20 67 37 10 36 -33 -1
-39 2 -33 15 4 9 9 26 11 39 8 32 -34 30 -49 -3 -12 -27 -28 -34 -28 -12 0 7
-7 23 -16 36 -27 39 -39 10 -19 -48 27 -81 3 -113 -30 -41 -10 22 -24 40 -32
40 -17 0 -17 -3 7 -79 23 -71 21 -91 -8 -88 -11 0 -18 6 -15 13 2 7 0 15 -6
19 -6 3 -11 -1 -11 -9 0 -20 -19 -31 -32 -18 -7 7 -5 33 6 83 21 93 6 116 -25
40 -19 -44 -24 -50 -36 -38 -11 11 -12 23 -3 62 6 27 16 55 22 62 7 9 7 17 -1
27 -8 10 -9 16 -1 21 16 10 12 28 -5 21 -8 -3 -23 -9 -32 -12 -17 -5 -17 -5 0
9 14 12 16 20 7 41 -6 18 -6 25 0 21 6 -3 16 -3 22 1 7 5 26 7 43 5 46 -3 215
26 345 60 175 46 420 130 413 142 -3 6 -1 7 5 3 6 -4 21 -2 32 4 16 8 20 8 20
-3 0 -8 7 -20 15 -27 20 -16 41 1 50 40 l6 29 32 -20 c64 -38 76 -16 25 46
-18 22 -25 34 -15 26 16 -12 21 -9 18 12 -1 4 7 3 18 -3 59 -31 54 13 -9 75
-27 27 -50 58 -50 68 0 18 1 18 25 3 33 -22 35 -21 35 14 0 40 17 38 25 -2 18
-97 28 -127 42 -133 26 -9 35 10 32 64 -6 79 23 61 35 -21 7 -48 30 -83 47
-73 5 4 9 26 9 51 l0 45 29 -16 c30 -15 61 -11 61 8 0 6 -12 23 -26 38 l-26
27 36 13 c37 13 47 35 21 45 -8 3 -38 1 -66 -5 -72 -16 -88 2 -27 28 52 22 63
34 45 49 -8 7 -36 5 -89 -6 -59 -12 -81 -13 -89 -5 -9 9 -6 15 14 24 34 15 34
20 0 41 -26 15 -27 17 -9 24 12 5 47 -2 92 -18 40 -15 75 -24 78 -21 15 15 3
34 -34 55 -41 24 -47 32 -30 43 5 3 30 -10 56 -29 25 -19 51 -33 59 -30 18 7
27 32 15 39 -13 8 -13 62 0 70 16 10 12 45 -6 52 -12 4 -13 7 -3 14 9 5 22 -3
40 -24 l26 -31 12 22 c7 13 10 30 7 40 -15 56 -17 66 -8 53 14 -20 49 -5 61
27 9 23 10 19 5 -23 -3 -27 -7 -57 -9 -65 -2 -8 2 -24 10 -34 20 -26 37 -10
65 59 39 96 61 64 34 -49 -14 -62 -15 -78 -4 -91 16 -20 34 -6 62 49 l20 40
27 -32 c32 -40 66 -43 75 -6 5 17 1 35 -9 50 -24 37 -19 44 38 41 49 -2 52 -1
52 23 0 23 -7 26 -80 43 -73 17 -94 28 -95 50 0 5 28 6 63 2 52 -6 65 -4 77
10 19 22 2 48 -36 56 l-29 5 32 5 c18 3 37 1 43 -5 7 -7 17 -6 33 3 20 13 21
13 9 -1 -11 -14 -5 -17 50 -23 35 -4 108 -16 163 -27 249 -51 327 -15 394 183
36 108 52 138 94 180 36 36 212 144 300 184 89 41 168 46 757 46 336 0 583 4
625 11 75 11 266 70 303 94 12 8 22 11 22 7 0 -5 5 0 11 10 18 30 0 54 -59 80
-80 36 -153 53 -332 77 -85 12 -222 32 -305 45 -176 28 -429 60 -640 80 -228
22 -313 54 -351 132 -10 21 -19 40 -19 43 -16 83 -50 115 -235 221 -278 159
-291 174 -289 335 2 132 -3 145 -128 304 -129 164 -122 150 -94 169 13 8 64
28 113 44 55 17 88 33 85 40 -9 27 -175 47 -391 47 -115 0 -236 5 -270 11 -34
6 -135 35 -226 64 -203 66 -268 74 -540 74 -238 -1 -276 5 -383 56 -100 48
-164 58 -357 53 -143 -4 -173 -7 -225 -28 -33 -13 -78 -24 -100 -24 -39 -1
-40 -1 -60 55 -11 32 -28 66 -39 78 -24 27 -119 62 -172 64 -50 2 -65 -9 -105
-79 -16 -30 -50 -70 -74 -89 -59 -49 -71 -80 -55 -153 18 -86 12 -114 -30
-135 -51 -26 -163 -20 -208 11 -72 52 -103 186 -64 275 24 55 52 81 140 128
76 41 105 75 104 119 -2 66 -88 150 -201 197 -64 26 -154 30 -213 8z m780
-587 c-4 -20 -25 -38 -43 -38 -23 0 -13 22 16 37 30 16 30 16 27 1z m-4508
-1773 c104 -17 202 -40 239 -56 23 -9 23 -11 7 -27 -26 -27 -175 -21 -306 12
-185 45 -275 73 -260 79 30 11 228 6 320 -8z m450 -200 c250 -15 321 -31 335
-75 9 -29 -15 -62 -69 -96 -26 -16 -49 -37 -52 -47 -4 -13 -11 -16 -27 -11
-31 9 -31 9 -11 39 23 36 6 54 -36 38 -30 -11 -30 -11 -30 23 0 23 -5 34 -15
34 -10 0 -16 -16 -21 -50 -4 -27 -13 -55 -20 -61 -12 -9 -14 -3 -14 34 0 82
-32 73 -45 -12 -8 -54 -22 -84 -36 -76 -5 4 -9 17 -9 31 0 24 -1 24 -25 8 -39
-26 -32 3 15 60 59 71 51 104 -13 50 -44 -37 -46 -13 -3 39 23 29 32 47 26 56
-6 11 -14 10 -39 -8 -29 -21 -31 -21 -31 -4 0 11 -6 25 -12 32 -11 11 -9 12 7
8 11 -3 67 -8 125 -12z m940 -632 c16 4 16 2 4 -22 -8 -14 -14 -38 -14 -53 0
-28 -13 -37 -25 -17 -4 6 -4 36 1 67 4 31 9 49 12 39 2 -12 10 -17 22 -14z
m80 -43 c1 8 12 -7 26 -33 27 -52 26 -90 -1 -67 -13 11 -17 8 -26 -19 -18 -50
-29 -26 -29 62 0 73 1 79 15 61 11 -15 15 -16 15 -4z m174 -151 c-30 -12 -37
-10 -24 5 6 8 19 12 27 9 14 -6 14 -8 -3 -14z m166 -234 c0 -9 -9 -15 -22 -15
-22 1 -23 1 -4 15 25 19 26 19 26 0z m60 -52 c-1 -29 -45 -55 -88 -51 -52 4
-49 29 5 43 23 5 45 13 49 18 14 13 34 7 34 -10z m417 -9 c-3 -3 -12 -4 -19
-1 -8 3 -5 6 6 6 11 1 17 -2 13 -5z m-110 -66 c-3 -8 -6 -5 -6 6 -1 11 2 17 5
13 3 -3 4 -12 1 -19z m-298 -14 c-7 -9 -18 -26 -24 -38 -12 -24 -40 -29 -40
-6 0 8 -4 19 -10 23 -5 5 -1 6 11 3 14 -4 29 2 45 17 27 26 39 27 18 1z m221
-31 c0 -32 -5 -28 -14 10 -4 19 -3 26 4 22 5 -3 10 -18 10 -32z m94 -27 c-3
-21 -9 -35 -11 -32 -3 3 -2 21 1 42 4 20 10 34 12 31 3 -3 2 -21 -2 -41z
m-158 -13 c-7 -7 -26 7 -26 19 0 6 6 6 15 -2 9 -7 13 -15 11 -17z m-55 -75 c8
-15 8 -18 0 -14 -6 4 -16 16 -22 28 -8 15 -8 18 0 14 6 -4 16 -16 22 -28z
m-99 -27 c7 10 9 10 6 1 -7 -26 -23 -16 -25 16 l-3 32 6 -32 c4 -25 8 -29 16
-17z m2988 -121 c19 -1 -29 -29 -50 -29 -13 -1 -13 0 0 9 13 9 13 11 0 21 -12
8 -10 10 10 5 14 -3 32 -6 40 -6z m-50 -106 c0 -8 -4 -14 -9 -14 -17 0 -41 12
-41 21 0 4 7 6 15 3 8 -4 15 -1 15 6 0 6 5 8 10 5 6 -3 10 -13 10 -21z m46
-30 c-3 -8 -11 -14 -18 -13 -8 0 -9 2 -2 5 6 3 9 17 7 32 -4 23 -3 25 7 9 7
-10 9 -25 6 -33z m-45 -35 l24 -20 -30 17 c-39 24 -40 24 -28 24 6 0 21 -9 34
-21z m-7 -37 c3 -5 -1 -9 -9 -9 -8 0 -15 4 -15 9 0 4 4 8 9 8 6 0 12 -4 15 -8z
m386 -77 c-46 -18 -61 -18 -30 0 14 8 34 14 45 14 13 0 8 -5 -15 -14z m-133
-17 c-3 -8 -6 -5 -6 6 -1 11 2 17 5 13 3 -3 4 -12 1 -19z m-212 2 c4 -7 -8 -8
-37 -4 -57 9 -61 14 -10 14 22 0 44 -5 47 -10z m394 -62 c-13 -18 -27 -35 -31
-36 -5 -2 -6 -7 -4 -11 3 -4 -1 -8 -9 -8 -8 0 0 17 22 44 42 51 54 57 22 11z
m-441 -41 c23 -20 38 -37 34 -37 -5 0 -19 11 -32 25 -12 13 -26 22 -30 20 -4
-2 -17 10 -30 28 -26 35 -20 32 58 -36z m-120 8 c12 -13 18 -26 14 -29 -4 -2
-15 9 -24 25 -21 35 -18 37 10 4z m640 -1 c-7 -15 -14 -21 -16 -15 -2 7 2 18
8 26 18 22 21 18 8 -11z m-431 -5 c1 -12 1 -20 0 -18 -2 2 -9 12 -16 22 -11
14 -11 17 1 17 7 0 14 -10 15 -21z m266 -36 c-7 -2 -19 -2 -25 0 -7 3 -2 5 12
5 14 0 19 -2 13 -5z m222 -13 c-3 -5 -14 -10 -23 -9 -14 0 -13 2 3 9 27 11 27
11 20 0z m-700 -10 c4 -6 -7 -10 -24 -10 -17 0 -31 5 -31 10 0 6 11 10 24 10
14 0 28 -4 31 -10z m582 -6 c-3 -3 -12 -4 -19 -1 -8 3 -5 6 6 6 11 1 17 -2 13
-5z m-494 -11 c-7 -2 -19 -2 -25 0 -7 3 -2 5 12 5 14 0 19 -2 13 -5z m394 1
c-3 -3 -12 -4 -19 -1 -8 3 -5 6 6 6 11 1 17 -2 13 -5z m-458 -31 c-13 -16 -28
-32 -33 -38 -4 -5 -3 0 3 12 12 23 39 53 48 53 4 0 -4 -12 -18 -27z m511 8 c0
7 8 2 17 -11 10 -14 15 -26 13 -27 -3 -1 4 -9 15 -17 11 -9 15 -16 10 -16 -6
0 -31 21 -55 47 -25 26 -35 39 -22 29 16 -14 22 -16 22 -5z m-316 -16 c3 -9 0
-15 -9 -15 -9 0 -12 6 -9 15 4 8 7 15 9 15 2 0 5 -7 9 -15z m231 -5 c3 -5 1
-10 -4 -10 -6 0 -11 5 -11 10 0 6 2 10 4 10 3 0 8 -4 11 -10z m225 -20 c0 -6
-9 -2 -20 7 -11 10 -20 19 -20 21 0 1 9 -2 20 -8 11 -6 20 -15 20 -20z m-445
-40 c-10 -11 -22 -20 -26 -20 -5 0 2 10 14 23 27 28 38 25 12 -3z m48 -4 c-10
-13 -20 -22 -22 -20 -4 4 29 44 36 44 2 0 -4 -11 -14 -24z m57 -10 c0 -3 -4
-8 -10 -11 -5 -3 -10 -1 -10 4 0 6 5 11 10 11 6 0 10 -2 10 -4z m60 -24 c0 -9
-4 -23 -8 -30 -5 -8 -8 1 -8 22 1 19 4 32 9 29 4 -2 7 -12 7 -21z m-215 8 c4
-6 -9 -10 -32 -9 -30 0 -34 2 -18 9 27 12 43 12 50 0z m364 -16 c2 -2 -10 -4
-27 -4 -18 0 -32 5 -32 10 0 9 47 4 59 -6z m-265 -66 c8 -32 12 -58 10 -58 -9
0 -26 56 -30 95 -4 47 0 40 20 -37z m-124 2 c-8 -5 -24 -9 -35 -9 -16 1 -16 2
5 9 35 11 48 11 30 0z m213 -25 c-9 -19 -18 -33 -20 -31 -6 6 19 66 28 66 5 0
1 -16 -8 -35z m-150 -50 c4 -25 4 -33 -2 -20 -4 11 -11 38 -14 60 -4 25 -4 33
2 20 4 -11 11 -38 14 -60z m342 37 c-7 -7 -55 8 -55 17 0 5 13 4 30 -2 16 -6
27 -13 25 -15z m-407 -39 c-6 -7 -16 -13 -22 -13 -7 0 -6 4 2 9 8 4 13 11 13
15 -3 23 0 30 9 16 5 -9 5 -19 -2 -27z m326 0 c-4 -22 -3 -25 5 -13 7 9 11 10
11 3 0 -16 -17 -26 -25 -13 -6 10 2 50 11 50 2 0 2 -12 -2 -27z m-68 2 c-3
-20 -26 -44 -26 -27 0 7 5 12 10 12 6 0 9 3 9 8 -2 11 1 22 5 22 2 0 3 -7 2
-15z"/>
<path d="M7520 3596 c0 -2 8 -10 18 -17 15 -13 16 -12 3 4 -13 16 -21 21 -21
13z"/>
<path d="M3877 4418 c-3 -18 -1 -37 4 -42 5 -6 9 7 9 32 0 50 -6 54 -13 10z"/>
<path d="M3162 4414 l-21 -29 -16 23 c-21 29 -36 19 -28 -18 5 -29 4 -30 -26
-24 -41 8 -41 -11 0 -25 38 -13 62 -13 34 0 -17 7 -17 8 -2 6 10 -1 18 -6 19
-12 0 -5 4 -18 10 -29 9 -17 7 -18 -36 -12 -63 10 -59 -8 7 -30 48 -16 66 -28
67 -46 0 -5 -9 -8 -19 -8 -14 0 -18 -5 -14 -20 4 -15 0 -20 -13 -21 -18 0 -18
-1 1 -10 l20 -9 -20 3 c-11 2 -19 7 -18 13 2 13 -74 100 -82 92 -9 -9 14 -50
25 -43 5 3 12 0 16 -6 5 -8 3 -9 -6 -4 -9 5 -10 2 -6 -13 10 -31 -27 -17 -64
24 -16 19 -32 34 -35 34 -11 0 -4 -27 11 -46 13 -16 15 -16 10 -1 -8 25 -1 21
19 -10 10 -16 12 -23 6 -17 -17 15 -76 2 -76 -16 0 -8 10 -16 23 -18 26 -4 28
-14 7 -32 -8 -7 -15 -16 -15 -21 0 -17 27 -9 50 16 21 22 60 35 60 19 0 -3
-12 -21 -26 -40 -34 -44 -13 -44 42 1 56 46 77 48 54 4 -9 -17 -7 -19 17 -20
15 -1 32 0 38 1 5 1 6 -2 2 -7 -5 -4 -14 -8 -20 -8 -7 0 -12 -7 -12 -15 0 -9
-10 -16 -25 -17 l-25 -2 25 9 c19 7 13 8 -24 4 -27 -3 -55 -8 -62 -11 -25 -10
-3 -23 38 -23 34 0 39 -2 28 -14 -6 -8 -28 -16 -47 -18 -46 -4 -57 -28 -14
-28 35 0 36 -2 19 -30 -23 -37 2 -38 52 -3 13 10 21 12 16 5 -8 -14 1 -52 13
-52 5 0 6 21 3 47 -4 35 -1 49 11 57 8 7 17 21 20 31 2 11 3 3 0 -18 -2 -24 0
-36 7 -32 5 3 7 0 4 -9 -3 -8 -1 -23 5 -33 9 -14 11 -3 9 51 -2 48 1 70 10 73
6 3 12 -2 12 -11 0 -9 5 -16 11 -16 6 0 9 6 6 14 -3 8 0 13 8 12 25 -4 26 -13
5 -65 -11 -28 -20 -56 -20 -61 0 -21 18 -8 36 25 33 62 48 31 18 -40 -20 -48
-9 -58 22 -20 24 29 24 29 30 8 3 -12 13 -24 21 -28 13 -4 15 1 10 29 -5 34
-5 34 24 26 47 -14 44 8 -5 32 -58 28 -62 50 -9 37 44 -9 69 5 32 19 -13 5
-41 17 -61 25 -44 19 -50 14 -10 -7 15 -8 22 -15 17 -16 -23 -1 -53 30 -48 50
4 15 11 18 30 14 23 -6 24 -5 14 14 -15 29 -14 35 7 27 9 -4 22 -8 29 -9 7 -1
16 -5 19 -9 4 -4 13 -2 21 5 17 14 27 4 43 -44 6 -21 15 -38 19 -38 16 0 19
12 11 41 -9 30 -8 30 21 24 22 -5 29 -3 29 9 0 8 -9 20 -21 27 l-21 11 23 24
c31 34 16 42 -30 16 -65 -37 -93 -26 -46 18 50 47 22 55 -35 10 -49 -39 -96
-40 -58 -2 9 9 7 12 -10 12 -29 0 -29 28 1 34 83 17 98 22 100 31 1 6 -15 11
-35 13 -32 3 -37 6 -34 25 2 15 11 23 27 24 l24 2 -25 -9 c-22 -9 -21 -9 9 -5
18 3 40 5 47 5 8 0 14 5 14 10 0 6 -14 10 -30 10 -30 0 -31 1 -24 36 6 31 4
35 -11 32 -10 -1 -21 -10 -23 -18 -5 -13 -3 -13 11 -1 15 11 17 11 17 -2 0 -9
-4 -18 -9 -21 -10 -6 -56 33 -63 55 -11 31 -16 1 -7 -40 8 -35 7 -47 -4 -59
-13 -12 -16 -9 -27 22 -18 56 -34 57 -26 1 10 -64 28 -106 22 -50 -3 22 -2 32
0 23 3 -10 9 -18 14 -18 5 0 6 -10 1 -22 -5 -13 -12 -23 -17 -23 -18 0 -34
-17 -28 -28 4 -7 3 -8 -2 -4 -5 5 -9 14 -10 20 0 7 -2 20 -2 30 -1 10 -7 15
-13 12 -6 -4 -8 -13 -5 -20 3 -8 -2 -12 -12 -11 -24 4 -26 23 -7 72 24 63 15
90 -14 42 -36 -60 -55 -41 -30 30 16 46 6 60 -19 26z m-42 -19 c0 -8 -2 -15
-4 -15 -2 0 -6 7 -10 15 -3 8 -1 15 4 15 6 0 10 -7 10 -15z m43 -25 c-3 -12
-8 -19 -11 -16 -5 6 5 36 12 36 2 0 2 -9 -1 -20z m204 -42 c-3 -7 -5 -2 -5 12
0 14 2 19 5 13 2 -7 2 -19 0 -25z m-209 -14 c0 -17 -3 -22 -8 -13 -5 6 -6 18
-3 26 8 19 11 16 11 -13z m53 -1 c-8 -15 -10 -15 -11 -2 0 17 10 32 18 25 2
-3 -1 -13 -7 -23z m-12 -47 c-1 -20 -2 -20 -6 -1 -3 11 -10 27 -17 35 -10 13
-9 13 7 1 9 -7 16 -23 16 -35z m-72 8 c-3 -3 -12 -4 -19 -1 -8 3 -5 6 6 6 11
1 17 -2 13 -5z m320 -20 c-3 -3 -12 -4 -19 -1 -8 3 -5 6 6 6 11 1 17 -2 13 -5z
m-67 -8 c0 -2 -11 -6 -25 -8 -13 -3 -22 -1 -19 3 5 9 44 13 44 5z m-295 -56
c3 -5 1 -10 -4 -10 -6 0 -11 5 -11 10 0 6 2 10 4 10 3 0 8 -4 11 -10z m85 6
c0 -3 -4 -8 -10 -11 -5 -3 -10 -1 -10 4 0 6 5 11 10 11 6 0 10 -2 10 -4z m285
-16 c-17 -18 -70 -50 -84 -50 -6 0 91 68 98 69 2 1 -4 -8 -14 -19z m-111 -15
c-4 -8 -8 -15 -10 -15 -2 0 -4 7 -4 15 0 8 4 15 10 15 5 0 7 -7 4 -15z m-374
-5 c0 -5 -6 -10 -14 -10 -8 0 -18 5 -21 10 -3 6 3 10 14 10 12 0 21 -4 21 -10z
m88 -22 c7 -10 18 -16 23 -13 19 12 8 -2 -27 -36 l-37 -34 23 32 c39 55 2 72
-59 26 l-35 -27 19 26 c11 14 22 26 25 25 15 -1 39 17 33 26 -10 17 21 -5 35
-25z m468 7 c-11 -8 -24 -15 -29 -15 -4 0 -5 -5 -1 -12 4 -7 3 -8 -4 -4 -6 4
-21 2 -33 -4 -11 -7 -23 -9 -26 -7 -2 3 20 16 49 30 62 30 70 32 44 12z m-399
-11 c-3 -3 -12 -4 -19 -1 -8 3 -5 6 6 6 11 1 17 -2 13 -5z m203 -54 c0 -5 -5
-10 -11 -10 -5 0 -7 5 -4 10 3 6 8 10 11 10 2 0 4 -4 4 -10z m210 1 c0 -5 -9
-7 -20 -4 -11 3 -20 7 -20 9 0 2 9 4 20 4 11 0 20 -4 20 -9z m-260 -104 c0 -7
-7 -22 -15 -33 -13 -17 -14 -16 -4 14 11 33 19 41 19 19z m50 -17 c0 -5 -5
-10 -11 -10 -5 0 -7 5 -4 10 3 6 8 10 11 10 2 0 4 -4 4 -10z m-252 -7 c-10 -2
-28 -2 -40 0 -13 2 -5 4 17 4 22 1 32 -1 23 -4z m12 -37 c0 -2 -7 -9 -15 -16
-13 -11 -14 -10 -9 4 5 14 24 23 24 12z m234 -5 c3 -5 -1 -11 -9 -14 -9 -4
-12 -1 -8 9 6 16 10 17 17 5z m36 -39 c0 -15 -2 -15 -10 -2 -13 20 -13 33 0
25 6 -3 10 -14 10 -23z"/>
<path d="M6237 4374 c-4 -4 -7 -18 -7 -31 0 -23 -1 -23 -25 -7 -39 25 -43 8
-7 -29 29 -30 41 -57 26 -57 -3 0 -19 9 -34 20 -44 31 -44 8 0 -35 43 -42 56
-84 20 -65 -17 9 -20 8 -20 -9 0 -38 -26 -11 -44 44 -20 64 -36 73 -29 15 4
-25 2 -40 -5 -40 -14 0 -25 17 -37 60 -13 43 -31 44 -27 1 4 -34 0 -36 -28
-21 -13 7 -21 7 -25 0 -8 -13 12 -40 29 -40 6 0 2 7 -8 15 -22 17 -10 20 14 5
13 -9 12 -13 -7 -29 -12 -10 -19 -22 -15 -25 3 -4 -1 -4 -11 0 -10 3 -17 1
-17 -5 0 -15 27 -13 70 5 l35 14 -35 -5 c-28 -4 -31 -2 -17 6 24 14 50 8 53
-13 1 -11 -12 -26 -34 -39 -50 -30 -23 -35 48 -9 43 16 48 19 20 15 -31 -5
-32 -4 -11 5 13 6 29 9 34 7 17 -5 17 -40 0 -52 -14 -11 -14 -12 1 -18 9 -4
16 -11 16 -17 0 -13 -39 -13 -78 1 -17 6 -39 9 -49 7 -14 -3 -9 -9 20 -23 60
-30 41 -46 -30 -26 -41 12 -55 -4 -19 -21 29 -13 33 -23 11 -32 -18 -7 -20
-36 -2 -36 6 0 19 5 27 11 12 9 11 10 -8 6 -12 -3 -20 -2 -17 3 6 10 45 20 43
11 -4 -31 4 -81 12 -76 6 3 10 12 10 20 0 8 5 26 12 42 6 15 12 32 12 37 1 5
8 11 16 13 13 4 13 3 0 -6 -12 -9 -12 -11 -1 -11 10 0 12 -10 8 -40 -3 -22 -1
-40 4 -40 8 0 25 51 32 97 2 12 7 26 12 30 4 5 5 2 1 -4 -4 -8 -1 -13 8 -13 9
0 16 -9 16 -21 0 -11 4 -18 10 -14 5 3 7 12 3 20 -3 8 0 15 7 15 6 0 8 -4 5
-10 -3 -5 -1 -10 6 -10 6 0 9 -8 6 -20 -3 -11 -1 -18 4 -14 5 3 9 12 9 20 0 8
5 12 11 9 7 -5 3 -15 -9 -29 -14 -14 -19 -29 -15 -47 4 -22 -1 -32 -26 -50
-39 -29 -44 -60 -6 -35 32 21 35 20 35 -8 0 -14 5 -28 10 -31 12 -7 41 55 33
70 -4 6 -2 6 3 2 5 -5 9 -13 9 -19 0 -15 32 -34 41 -25 14 13 -46 65 -72 62
-19 -2 -21 1 -15 14 5 9 18 24 29 34 17 16 20 16 32 2 11 -13 9 -15 -11 -13
-16 2 -24 -2 -25 -15 -1 -12 0 -13 3 -2 6 19 8 19 43 -7 45 -33 49 -13 7 30
-20 21 -37 46 -37 55 0 20 11 22 28 5 9 -9 12 -7 12 10 0 12 4 22 10 22 14 0
27 -29 35 -77 9 -55 25 -56 25 -2 0 28 4 39 13 36 7 -2 12 -21 12 -47 0 -28 5
-45 14 -48 11 -4 13 5 9 44 -3 27 -4 42 -1 33 5 -19 50 -45 60 -35 4 4 1 16
-6 28 -11 17 -11 22 1 29 7 5 19 9 26 9 6 0 12 5 12 10 0 6 -22 10 -49 10 -62
0 -74 16 -27 35 40 17 50 41 14 31 -52 -14 -108 -19 -108 -8 0 6 7 15 17 20
14 9 14 10 -5 16 -12 4 -22 11 -22 16 0 16 29 18 76 4 56 -17 64 -17 64 -3 0
5 -17 17 -37 25 -32 14 -34 17 -20 26 10 5 26 7 37 4 11 -3 29 -9 40 -12 14
-4 20 -1 20 10 0 9 -6 16 -14 16 -23 0 -31 22 -12 32 9 5 16 16 16 25 0 11 -8
14 -30 11 -27 -4 -30 -2 -30 25 0 40 -23 30 -31 -14 -11 -72 -39 -81 -39 -12
0 57 -10 49 -30 -25 -16 -59 -40 -82 -40 -37 0 22 -3 24 -19 15 -47 -24 -41 4
10 56 49 50 45 77 -7 38 -31 -24 -34 -25 -34 -7 0 11 14 32 30 48 17 16 30 32
30 37 0 14 -27 9 -40 -7 -17 -21 -28 -19 -32 7 -3 22 -19 33 -31 22z m-78
-360 c9 -8 -55 -2 -74 6 -13 6 -5 7 25 3 25 -3 47 -7 49 -9z m258 0 c-3 -3
-12 -4 -19 -1 -8 3 -5 6 6 6 11 1 17 -2 13 -5z m-47 -19 c19 -22 8 -25 -12 -3
-10 10 -14 18 -9 18 5 0 14 -7 21 -15z m-50 -15 c0 -5 -7 -7 -15 -4 -8 4 -15
8 -15 10 0 2 7 4 15 4 8 0 15 -4 15 -10z m-260 -4 c0 -3 -4 -8 -10 -11 -5 -3
-10 -1 -10 4 0 6 5 11 10 11 6 0 10 -2 10 -4z m87 -28 c-3 -7 -5 -2 -5 12 0
14 2 19 5 13 2 -7 2 -19 0 -25z m346 15 c-7 -2 -21 -2 -30 0 -10 3 -4 5 12 5
17 0 24 -2 18 -5z m-106 -35 c-3 -7 -5 -2 -5 12 0 14 2 19 5 13 2 -7 2 -19 0
-25z m112 -23 c0 -5 -4 -2 -10 8 -6 9 -14 15 -20 12 -5 -3 -6 1 -3 10 6 14 8
14 20 -2 7 -10 13 -22 13 -28z m-158 -32 c13 -16 12 -17 -3 -4 -10 7 -18 15
-18 17 0 8 8 3 21 -13z m-102 -36 c-2 -1 -13 -9 -24 -17 -19 -14 -19 -14 -6 3
7 9 18 17 24 17 6 0 8 -1 6 -3z"/>
<path d="M9212 4247 c-6 -6 -14 -25 -17 -40 l-8 -28 -33 32 c-20 20 -39 29
-48 26 -23 -9 -20 -19 24 -75 22 -27 40 -57 40 -65 0 -32 -23 -28 -62 12 -23
22 -45 41 -50 41 -20 0 -5 -44 37 -103 58 -84 63 -137 8 -85 -20 19 -25 20
-33 8 -5 -8 -10 -23 -10 -32 0 -26 -27 -22 -34 5 -3 12 -6 40 -6 62 0 106 -59
175 -61 72 -1 -23 -4 -53 -8 -66 -11 -40 -32 -1 -38 71 -3 35 -10 69 -16 76
-15 19 -34 -2 -41 -48 -7 -43 -16 -49 -36 -25 -7 8 -23 15 -36 15 -31 0 -33
-39 -4 -65 28 -25 26 -30 -20 -44 -37 -11 -44 -18 -37 -38 1 -5 38 -8 81 -8
91 0 113 -17 44 -35 -55 -13 -73 -24 -73 -41 0 -11 22 -14 104 -14 70 0 105
-4 108 -12 2 -6 -10 -14 -26 -18 -36 -8 -39 -20 -11 -35 11 -6 20 -15 20 -19
0 -22 -36 -17 -105 14 -42 19 -83 35 -91 35 -28 0 -13 -29 31 -61 25 -18 45
-36 45 -40 0 -20 -36 -15 -94 12 -36 17 -70 28 -76 24 -19 -12 -10 -32 25 -56
19 -13 35 -26 35 -29 0 -3 -13 -11 -30 -17 -22 -8 -30 -18 -30 -36 0 -30 19
-39 60 -27 29 8 31 8 23 -13 -4 -12 -7 -35 -8 -52 0 -50 27 -35 65 35 19 36
43 66 52 68 15 3 15 -1 1 -48 -16 -55 -12 -80 12 -80 10 0 30 31 55 85 42 92
74 116 63 48 -6 -33 -4 -36 13 -29 36 15 54 18 54 10 0 -16 -14 -29 -82 -77
-44 -31 -68 -55 -68 -68 0 -25 8 -24 75 5 80 36 70 6 -17 -53 -69 -46 -63 -86
8 -56 47 19 44 20 44 -19 0 -43 21 -63 44 -41 9 9 19 27 22 41 8 31 11 30 50
-7 29 -28 54 -32 54 -10 0 5 -16 32 -35 60 -31 45 -46 91 -29 91 4 0 27 -18
51 -40 39 -37 63 -44 63 -20 0 6 -21 42 -46 81 -51 80 -53 114 -5 79 l30 -20
3 32 c6 62 23 29 30 -59 8 -93 27 -133 46 -97 5 11 13 40 16 67 12 82 36 54
36 -43 0 -38 5 -62 15 -70 21 -18 32 -5 40 46 l7 46 22 -21 c45 -43 93 -15 55
32 -25 33 -25 35 16 43 19 3 39 12 45 19 18 21 -11 34 -85 37 -40 2 -69 7 -68
13 1 6 10 11 20 13 68 13 94 24 91 40 -3 14 -20 18 -102 22 -101 5 -137 22
-77 35 38 8 39 19 5 41 -22 15 -23 19 -9 26 11 7 36 -2 90 -31 41 -23 81 -41
90 -41 27 0 16 27 -26 65 -32 28 -38 40 -29 48 9 9 22 1 56 -36 27 -30 50 -47
61 -45 27 5 27 32 -2 66 l-25 30 32 7 c30 7 47 20 48 37 0 16 -34 38 -61 38
l-29 0 17 34 c17 36 13 66 -9 66 -7 0 -33 -25 -56 -55 -63 -81 -85 -71 -51 22
5 13 6 30 3 38 -12 31 -32 15 -74 -60 -55 -100 -83 -122 -73 -59 6 39 5 39
-54 17 -7 -3 -13 2 -13 11 0 9 34 39 75 68 41 29 75 58 75 65 0 25 -32 26 -77
4 -25 -12 -47 -20 -50 -17 -11 11 20 46 67 76 73 47 64 87 -13 55 l-37 -15 0
33 c0 49 -33 74 -58 44z"/>
<path d="M3390 4075 c0 -6 14 -26 31 -45 l30 -35 -6 30 c-4 17 -11 35 -17 40
-8 7 -9 4 -4 -10 5 -16 2 -15 -14 5 -11 14 -20 20 -20 15z"/>
<path d="M4698 3953 c-16 -4 -43 -58 -39 -78 2 -5 -1 -6 -6 -2 -4 5 -8 13 -8
19 0 6 -8 12 -17 14 -21 3 -22 0 -7 -29 10 -21 10 -21 -6 -2 -8 11 -13 25 -10
33 2 7 0 10 -5 7 -6 -3 -10 2 -10 11 0 16 1 16 20 -1 11 -10 20 -13 20 -8 0
17 -29 36 -45 29 -13 -4 -10 -16 16 -69 22 -45 30 -70 24 -83 -5 -11 -7 -23
-6 -28 1 -5 -5 -3 -14 4 -8 7 -13 15 -10 18 3 3 -7 18 -22 34 -27 28 -63 38
-63 17 0 -17 41 -70 50 -64 4 3 14 -3 21 -13 13 -15 12 -16 -3 -3 -10 7 -18 9
-18 3 0 -12 25 -34 32 -27 3 3 11 -3 19 -12 13 -16 12 -17 -3 -4 -11 8 -18 9
-18 3 0 -6 5 -14 10 -17 10 -6 14 -45 5 -45 -3 0 -17 7 -30 16 -25 16 -25 16
-31 -15 -6 -26 -10 -31 -28 -26 -21 6 -21 6 -2 -9 11 -9 15 -16 9 -16 -14 0
-43 34 -42 51 0 8 4 6 9 -6 6 -13 9 -15 9 -5 1 23 -26 160 -33 167 -16 16 -29
-21 -27 -71 2 -56 -11 -78 -32 -57 -9 9 -7 11 8 6 20 -6 20 -6 1 9 -10 8 -22
14 -25 12 -3 -2 -6 15 -6 37 -2 97 -37 133 -43 44 l-3 -47 -30 16 c-31 16 -69
11 -69 -9 0 -6 12 -23 27 -39 14 -15 25 -29 22 -31 -2 -1 -21 -10 -41 -20 -40
-17 -50 -37 -20 -37 9 0 40 6 67 14 28 7 56 11 64 8 9 -3 11 0 6 9 -5 8 -4 11
1 6 5 -5 9 -14 9 -20 0 -7 5 -12 12 -12 6 0 15 -4 20 -8 4 -5 4 -8 -2 -6 -5 1
-21 -2 -35 -8 -14 -6 -43 -18 -64 -27 -65 -27 -32 -38 62 -20 65 12 86 13 98
4 21 -18 17 -26 -17 -40 l-30 -13 31 -20 c30 -19 31 -21 15 -33 -10 -8 -21
-12 -24 -10 -3 2 -39 13 -79 26 -111 34 -136 13 -41 -35 27 -14 49 -27 49 -30
0 -2 -9 -9 -20 -15 -14 -8 -32 -5 -72 10 -93 35 -119 21 -47 -27 l40 -26 -31
-20 c-55 -35 -19 -69 44 -42 18 8 19 5 13 -38 -4 -29 -2 -49 4 -53 14 -8 25 8
45 74 15 46 47 83 60 69 2 -2 0 -28 -6 -57 -10 -53 -3 -79 18 -66 6 3 20 37
31 75 30 98 71 136 71 66 0 -32 2 -35 19 -25 33 17 44 12 37 -16 -5 -19 -4
-24 6 -18 7 4 0 -7 -15 -24 -16 -16 -28 -33 -27 -37 1 -4 -1 -9 -3 -12 -15
-15 2 29 19 48 31 36 1 17 -55 -33 -78 -70 -67 -92 20 -38 l49 30 1 -33 1 -32
8 30 c7 29 8 29 9 4 1 -15 -9 -35 -24 -49 -22 -20 -23 -25 -10 -32 9 -6 15
-23 15 -47 0 -26 5 -41 16 -45 23 -9 32 0 40 39 7 42 13 43 44 10 27 -28 50
-33 50 -9 0 20 -69 104 -83 101 -6 -1 -13 9 -14 23 l-2 25 8 -25 c9 -24 9 -24
10 -2 1 13 7 22 17 22 9 0 12 5 8 12 -4 7 -3 8 5 4 6 -4 9 -11 6 -16 -6 -10
56 -60 73 -60 26 0 9 38 -35 80 -26 25 -37 32 -23 15 23 -27 21 -27 -13 4 -36
34 -52 56 -22 31 9 -8 15 -9 15 -2 0 6 -4 13 -10 17 -6 3 -6 15 0 29 5 13 6
27 2 32 -4 4 -1 4 6 0 7 -4 10 -11 7 -16 -3 -4 6 -15 20 -24 l25 -16 0 35 c0
19 4 35 9 35 19 0 34 -33 50 -107 11 -55 20 -78 31 -78 12 0 15 13 15 58 0 40
4 57 13 57 8 0 10 5 6 13 -4 6 -3 8 1 4 5 -4 10 -13 11 -20 21 -110 28 -133
37 -139 19 -12 27 2 27 44 0 34 3 39 18 33 58 -25 91 -8 53 26 -11 11 -16 14
-11 7 13 -16 13 -38 -1 -38 -5 0 -7 5 -4 10 3 6 3 16 -2 23 -19 30 -12 45 27
61 74 30 32 49 -54 25 -34 -9 -41 -8 -58 9 -19 19 -19 19 29 37 97 36 84 54
-28 35 -72 -11 -82 -11 -97 3 -14 15 -13 18 16 30 l32 13 -25 14 c-14 7 -25
17 -25 21 0 20 27 18 100 -8 58 -20 82 -25 90 -17 8 8 -3 20 -39 44 -28 17
-51 36 -51 41 0 15 46 10 95 -11 26 -11 53 -20 61 -20 25 0 15 25 -22 50 -33
22 -35 25 -19 35 30 17 57 46 50 53 -4 4 -32 7 -62 7 -42 0 -57 4 -60 15 -4
13 -3 13 7 0 10 -12 11 -11 7 7 -3 12 2 30 10 40 13 17 14 17 5 -2 -5 -11 -6
-29 -2 -39 6 -18 7 -18 13 5 22 83 -14 79 -52 -6 -19 -42 -36 -65 -46 -65 -12
0 -15 5 -11 17 4 9 10 37 13 61 10 71 -22 52 -60 -38 -36 -83 -67 -106 -67
-50 0 25 -4 31 -15 26 -8 -3 -22 -9 -30 -12 -20 -8 -20 29 0 46 8 7 13 16 10
20 -3 5 0 12 6 16 8 5 8 8 -1 14 -8 5 -7 9 5 13 10 5 14 3 9 -4 -4 -7 -1 -10
7 -7 8 3 13 11 12 17 -3 10 10 15 30 12 4 0 7 4 7 9 0 6 5 10 11 10 8 0 7 -5
-1 -15 -7 -9 -15 -14 -17 -12 -4 5 -62 -47 -58 -52 2 -2 24 12 49 30 73 52 56
80 -24 39 -48 -25 -50 -25 -50 -1 0 12 11 23 30 30 17 6 44 16 60 22 19 7 30
18 30 30 0 22 -20 24 -73 5 -42 -15 -52 -9 -37 26 10 21 10 21 6 -7 l-5 -30
15 34 c13 28 13 36 2 46 -7 6 -21 10 -30 8z m6 -25 c-10 -13 -20 -25 -21 -27
-2 -2 -3 1 -3 7 0 11 27 42 37 42 3 0 -2 -10 -13 -22z m103 -60 c-2 -7 -16
-12 -31 -11 -14 1 -24 -2 -21 -7 6 -10 -33 -25 -42 -16 -4 3 1 6 11 6 9 0 15
4 12 9 -8 13 18 21 45 14 15 -4 20 -3 15 5 -4 7 -2 12 4 12 7 0 10 -6 7 -12z
m-253 -47 c10 -11 13 -22 8 -25 -9 -6 -20 4 -36 32 -11 19 9 14 28 -7z m-181
-51 c2 -19 2 -27 0 -17 -2 9 -9 15 -14 12 -5 -4 -9 11 -9 32 1 45 16 27 23
-27z m274 28 c-3 -7 -5 -2 -5 12 0 14 2 19 5 13 2 -7 2 -19 0 -25z m-175 -63
c3 -22 3 -31 0 -20 l-4 20 -9 -20 c-5 -13 -8 0 -8 40 0 65 13 53 21 -20z m215
43 c-3 -7 -5 -2 -5 12 0 14 2 19 5 13 2 -7 2 -19 0 -25z m-412 -19 c-4 -6 3
-23 16 -37 l23 -27 -28 26 c-24 23 -29 49 -10 49 3 0 2 -5 -1 -11z m40 -9 c3
-6 -1 -7 -9 -4 -18 7 -21 14 -7 14 6 0 13 -4 16 -10z m546 -13 c-6 -8 -9 -21
-6 -29 3 -8 1 -25 -4 -39 -8 -21 -10 -21 -11 -4 0 17 -2 17 -10 5 -11 -17 -13
-9 -4 15 6 13 9 14 16 3 7 -9 8 -6 4 11 -5 24 11 68 21 57 3 -3 1 -12 -6 -19z
m-234 -59 c-3 -8 -6 -5 -6 6 -1 11 2 17 5 13 3 -3 4 -12 1 -19z m50 -20 c-3
-7 -5 -2 -5 12 0 14 2 19 5 13 2 -7 2 -19 0 -25z m363 22 c0 -5 -10 -14 -21
-21 -15 -8 -19 -8 -15 0 4 6 0 11 -11 12 -16 0 -16 1 2 9 27 12 45 12 45 0z
m-750 -20 c0 -5 -10 -10 -22 -10 -19 0 -20 2 -8 10 19 13 30 13 30 0z m319
-16 c14 -12 -19 -1 -35 12 -18 14 -18 14 6 3 14 -6 27 -13 29 -15z m121 -28
c-8 -8 -9 -6 -4 8 6 16 3 17 -17 12 l-24 -7 25 15 c22 13 25 13 28 -1 2 -8 -1
-20 -8 -27z m81 11 c-10 -9 -11 -8 -5 6 3 10 9 15 12 12 3 -3 0 -11 -7 -18z
m-427 -36 c3 -5 -17 -13 -44 -18 -55 -11 -57 -5 -7 14 40 15 45 15 51 4z m69
2 c-7 -2 -21 -2 -30 0 -10 3 -4 5 12 5 17 0 24 -2 18 -5z m565 -18 c-3 -3 -13
-2 -22 1 -14 5 -15 9 -4 15 13 8 36 -6 26 -16z m-527 -2 c13 -16 12 -17 -3 -4
-10 7 -18 15 -18 17 0 8 8 3 21 -13z m554 -3 c3 -5 1 -10 -4 -10 -6 0 -11 5
-11 10 0 6 2 10 4 10 3 0 8 -4 11 -10z m-218 -16 c-3 -3 -12 -4 -19 -1 -8 3
-5 6 6 6 11 1 17 -2 13 -5z m43 -14 c8 -5 11 -10 5 -10 -5 0 -17 5 -25 10 -8
5 -10 10 -5 10 6 0 17 -5 25 -10z m85 -24 c19 -16 19 -16 -10 -10 -36 8 -67
23 -47 24 7 0 10 5 6 11 -8 13 20 -1 51 -25z m-481 0 c-3 -9 -12 -12 -22 -9
-15 6 -9 11 25 22 1 1 0 -5 -3 -13z m331 -26 c3 -5 1 -10 -4 -10 -6 0 -11 5
-11 10 0 6 2 10 4 10 3 0 8 -4 11 -10z m-481 -10 c7 0 13 -6 13 -14 0 -13 -4
-13 -29 0 -30 15 -39 30 -12 20 9 -3 21 -6 28 -6z m56 -20 c8 -5 11 -10 5 -10
-5 0 -17 5 -25 10 -8 5 -10 10 -5 10 6 0 17 -5 25 -10z m60 -20 c8 -5 11 -10
5 -10 -5 0 -17 5 -25 10 -8 5 -10 10 -5 10 6 0 17 -5 25 -10z m510 -12 c-14
-5 -54 -11 -90 -13 l-65 -4 70 13 c91 17 119 19 85 4z m-720 -19 c0 -5 4 -7
10 -4 5 3 17 2 26 -3 15 -8 15 -10 0 -15 -12 -5 -15 -3 -10 5 5 7 2 9 -8 5 -9
-3 -24 1 -35 8 -17 13 -17 14 0 15 9 0 17 -5 17 -11z m112 -32 c-12 -5 -26 -5
-36 0 -12 7 -7 9 20 9 30 0 33 -2 16 -9z m211 -8 c5 -3 2 -9 -7 -12 -12 -5
-16 0 -16 15 0 12 3 17 8 12 4 -5 11 -12 15 -15z m218 4 c13 -16 12 -17 -3 -4
-17 13 -22 21 -14 21 2 0 10 -8 17 -17z m-61 -19 c0 -14 -4 -23 -9 -20 -5 3
-7 15 -4 26 7 28 13 25 13 -6z m-310 6 c-8 -5 -19 -10 -25 -10 -5 0 -3 5 5 10
8 5 20 10 25 10 6 0 3 -5 -5 -10z m51 -17 c-12 -20 -14 -14 -5 12 4 9 9 14 11
11 3 -2 0 -13 -6 -23z m544 2 c-16 -7 -36 -10 -45 -7 -10 5 -6 8 15 13 49 11
62 8 30 -6z m-398 -17 c-3 -8 -6 -5 -6 6 -1 11 2 17 5 13 3 -3 4 -12 1 -19z
m-169 -57 c-7 -23 -16 -41 -21 -41 -10 0 3 53 16 61 5 4 6 17 3 30 -6 20 -5
21 4 7 7 -12 7 -28 -2 -57z m373 34 c5 4 9 -19 8 -52 l-1 -58 -13 60 c-8 33
-13 67 -13 75 0 8 3 5 5 -8 2 -12 9 -20 14 -17z m126 29 c-3 -3 -12 -4 -19 -1
-8 3 -5 6 6 6 11 1 17 -2 13 -5z m-688 -20 c-12 -15 -11 -16 11 -10 22 6 23 5
7 -5 -14 -8 -22 -8 -30 0 -9 9 -8 14 3 21 22 14 24 12 9 -6z m87 -57 c-17 -49
-28 -59 -19 -17 5 29 23 62 30 56 1 -1 -4 -18 -11 -39z m572 -62 c0 -16 -2
-15 -8 5 -4 14 -8 36 -8 50 0 22 1 22 8 -5 4 -16 8 -39 8 -50z m-383 35 c3 -5
-9 -17 -27 -26 l-33 -17 24 27 c28 29 28 29 36 16z m223 -33 c6 -5 12 -14 11
-20 0 -9 -2 -8 -6 1 -2 6 -8 10 -13 7 -4 -3 -13 2 -19 9 -9 11 -9 14 1 12 7
-1 19 -5 26 -9z m-28 -116 c0 -8 -2 -12 -4 -10 -2 2 -4 7 -3 11 1 4 -14 24
-33 45 l-35 38 38 -34 c20 -19 37 -42 37 -50z m-44 27 l19 -23 -25 20 c-14 11
-27 21 -29 22 -2 2 0 3 6 3 5 0 18 -10 29 -22z m-79 -45 c-3 -10 -5 -2 -5 17
0 19 2 27 5 18 2 -10 2 -26 0 -35z m30 25 c-3 -8 -6 -5 -6 6 -1 11 2 17 5 13
3 -3 4 -12 1 -19z"/>
<path d="M6186 3899 c-32 -37 -34 -54 -5 -39 11 7 18 14 15 18 -4 3 4 16 16
29 12 13 17 23 11 23 -6 0 -23 -14 -37 -31z"/>
<path d="M6205 3890 c-3 -5 -2 -10 4 -10 5 0 13 5 16 10 3 6 2 10 -4 10 -5 0
-13 -4 -16 -10z"/>
<path d="M5999 3427 c-1 -7 0 -23 1 -36 1 -20 -2 -22 -17 -16 -40 16 -53 17
-53 3 0 -7 16 -22 36 -33 19 -10 40 -28 46 -38 11 -21 16 -21 -67 -1 -44 11
-27 -13 33 -47 31 -18 61 -33 66 -34 5 0 11 -7 13 -15 4 -13 3 -13 -6 0 -8 12
-11 12 -11 1 0 -9 -8 -12 -26 -8 -23 4 -25 2 -20 -19 5 -18 2 -24 -9 -24 -14
0 -26 15 -67 90 -25 44 -40 29 -22 -22 10 -30 11 -43 3 -49 -8 -5 -8 -8 0 -12
7 -3 7 -5 -1 -3 -7 2 -13 7 -13 12 -1 20 -36 74 -45 69 -6 -3 -7 1 -4 9 4 10
1 16 -9 16 -13 0 -14 -6 -6 -32 12 -42 12 -40 -11 -33 -11 3 -27 2 -37 -3 -15
-9 -13 -12 15 -29 18 -11 29 -23 25 -26 -3 -4 -1 -7 5 -7 7 0 12 4 12 8 0 10
48 14 54 4 2 -4 -6 -8 -17 -9 -46 -4 -66 -10 -81 -22 -14 -12 -14 -15 -3 -25
8 -6 20 -32 27 -59 11 -42 11 -50 -4 -66 -18 -19 -11 -31 27 -44 16 -6 16 -9
2 -30 -8 -13 -12 -27 -8 -32 5 -4 2 -5 -5 -1 -11 6 -10 12 1 30 14 21 13 23
-11 32 -20 8 -30 22 -40 57 -32 107 -65 102 -37 -6 10 -39 18 -80 18 -90 -1
-11 3 -15 10 -11 7 4 9 3 4 -1 -17 -19 -44 -14 -58 11 l-13 26 -22 -27 c-17
-21 -23 -24 -32 -12 -8 10 -7 32 8 91 28 114 11 144 -31 54 -13 -29 -28 -56
-34 -60 -6 -5 -6 -8 2 -8 7 0 17 8 22 18 6 9 11 12 11 6 0 -6 -7 -17 -16 -24
-12 -11 -18 -10 -32 5 -9 10 -11 15 -5 11 9 -5 11 1 7 21 -3 15 2 50 10 77 8
27 13 53 10 58 -10 16 -25 7 -41 -27 -20 -42 -27 -43 -49 -10 -9 14 -22 25
-29 25 -19 0 -28 -35 -16 -59 18 -32 13 -36 -34 -33 -29 3 -45 0 -45 -7 0 -13
27 -26 87 -41 25 -6 47 -19 54 -31 6 -11 9 -22 7 -24 -2 -2 -28 1 -58 6 -53 8
-79 1 -66 -19 3 -5 38 -18 78 -27 78 -19 98 -29 98 -51 0 -9 -11 -14 -30 -14
-27 0 -30 -2 -20 -19 17 -33 12 -44 -16 -37 -19 5 -24 4 -18 -6 4 -7 -2 -4
-14 6 -26 23 -29 34 -4 15 9 -7 -8 13 -38 44 -55 58 -70 67 -70 44 0 -18 48
-82 62 -82 6 0 13 -7 15 -15 4 -13 3 -13 -6 0 -7 10 -11 11 -11 3 0 -28 -47
-12 -90 32 -63 64 -91 60 -50 -7 27 -44 26 -48 -14 -48 -36 0 -53 -19 -33 -39
6 -6 24 -11 40 -11 24 0 27 -3 22 -21 -5 -14 -3 -19 3 -15 6 3 13 2 17 -3 3
-6 -3 -8 -15 -6 -25 5 -48 -31 -31 -48 8 -8 24 2 59 36 26 26 55 47 65 47 23
0 22 -9 -8 -52 -46 -68 -23 -94 31 -35 62 68 78 91 32 49 -49 -47 -69 -45 -37
4 10 16 19 24 19 17 0 -6 -4 -15 -10 -18 -5 -3 -10 -11 -10 -18 0 -6 17 5 38
24 25 24 44 34 60 31 27 -4 28 -14 5 -49 l-17 -26 38 6 c33 5 37 4 31 -11 -4
-9 -8 -24 -9 -32 -2 -8 -11 -16 -22 -17 -18 -3 -18 -2 1 6 35 16 -6 12 -75 -7
-86 -25 -90 -48 -7 -44 35 3 57 0 57 -6 0 -16 -18 -25 -80 -42 -70 -19 -77
-46 -11 -41 38 2 43 0 37 -14 -24 -65 -10 -94 28 -55 11 13 14 19 6 15 -8 -5
-12 -4 -7 0 19 22 44 13 60 -20 17 -36 37 -47 37 -19 0 8 -5 36 -12 62 -9 35
-13 41 -18 27 -6 -18 -7 -17 -12 3 -4 12 -2 20 3 17 4 -3 14 3 21 15 19 30 27
25 50 -30 11 -27 25 -50 29 -50 13 0 11 48 -6 109 -10 40 -11 58 -3 68 6 8 8
16 5 19 -3 3 -12 -7 -21 -23 -8 -15 -15 -23 -16 -16 0 7 11 25 25 40 14 15 24
24 23 18 -2 -13 23 -65 32 -65 9 0 34 52 31 65 -1 5 7 1 18 -9 12 -11 21 -24
21 -29 0 -6 -7 -2 -16 9 -15 19 -15 18 -9 -3 3 -12 -4 -53 -15 -92 -20 -65
-20 -91 -1 -91 4 0 18 23 31 50 13 28 27 50 32 50 16 0 18 -47 3 -89 -28 -81
-14 -109 25 -46 25 40 36 44 45 15 3 -11 15 -25 26 -30 26 -14 35 9 20 51
l-11 32 45 -6 c39 -6 45 -4 45 12 0 12 -13 22 -42 30 -49 15 -88 37 -88 51 0
6 24 7 60 3 50 -5 60 -3 60 10 0 10 -25 24 -79 42 -67 22 -91 38 -91 61 0 2
14 4 31 4 21 0 29 4 26 13 -19 47 -19 47 4 48 l24 1 -25 9 -25 8 25 -2 c14 -1
25 -6 25 -12 0 -17 16 -36 25 -30 5 3 12 0 16 -6 5 -8 8 -8 13 0 4 6 14 -1 24
-18 13 -22 13 -28 3 -28 -9 0 -12 7 -8 16 3 9 1 13 -3 8 -5 -4 -17 0 -27 10
-29 26 -21 5 15 -37 51 -63 79 -46 37 22 -25 41 -25 48 -2 48 12 0 26 -18 43
-52 36 -78 67 -68 44 14 -7 26 -6 27 28 21 20 -3 37 -1 41 6 11 17 -11 48 -40
55 -26 7 -26 7 -8 27 11 12 17 32 16 49 -2 15 2 31 8 35 7 5 9 -2 4 -20 -4
-18 -2 -30 7 -36 17 -10 39 8 39 32 0 22 12 24 40 7 10 -7 22 -9 26 -5 9 9
-55 77 -69 74 -6 -1 -12 7 -14 18 l-3 20 9 -20 c8 -17 10 -18 10 -2 1 21 13
22 53 1 52 -27 56 0 5 35 -49 33 -62 38 -51 19 4 -7 -2 -4 -14 6 -12 11 -22
24 -22 29 0 6 7 2 15 -9 13 -18 14 -18 8 5 -6 22 -4 23 20 17 25 -6 26 -5 17
19 -8 21 -7 25 8 25 11 0 30 -22 51 -61 23 -42 37 -57 44 -50 7 7 6 19 -3 40
-29 70 13 55 53 -19 14 -26 20 -31 27 -20 5 8 5 21 -1 31 -15 30 -11 42 14 36
12 -4 29 -2 36 3 12 7 12 11 2 24 -8 9 -20 16 -27 16 -20 0 -17 10 8 37 12 13
19 26 16 29 -9 9 -49 -16 -43 -26 3 -5 0 -12 -6 -16 -8 -5 -9 -3 -4 6 6 10 4
11 -11 5 -10 -4 -30 -8 -44 -8 -21 1 -22 0 -6 -9 9 -5 24 -7 32 -4 9 3 12 1 9
-4 -10 -15 -30 -12 -58 10 -15 12 -33 18 -44 14 -10 -3 2 6 26 20 50 30 70 35
28 7 -16 -10 -25 -21 -20 -24 9 -6 87 62 80 70 -3 3 -33 -10 -67 -28 -45 -24
-64 -29 -72 -21 -9 9 -7 17 7 32 18 19 18 20 -2 20 -24 0 -50 25 -30 29 6 1
43 4 80 6 94 4 108 21 28 32 -23 3 -41 9 -41 13 0 18 32 31 71 28 27 -2 44 1
46 10 3 7 -3 12 -14 12 -10 0 -24 4 -32 9 -12 8 -12 12 -2 25 7 8 11 22 9 30
-3 14 -6 14 -32 1 -37 -19 -36 -20 -36 15 0 20 -5 30 -15 30 -11 0 -15 -13
-16 -55 -2 -77 -2 -78 -19 -82 -12 -4 -12 -3 -1 5 9 7 10 11 1 14 -6 2 -14 23
-17 46 -8 63 -27 46 -24 -22 2 -54 -9 -86 -30 -86 -5 0 -9 9 -9 20 0 24 -8 25
-32 3 -17 -15 -18 -15 -18 6 0 12 14 46 31 76 33 59 24 74 -17 26 -13 -16 -32
-28 -42 -27 -9 2 -20 -1 -23 -6 -3 -5 -9 -2 -12 7 -4 9 -3 13 2 10 5 -3 12 3
14 12 4 16 5 16 6 -1 1 -10 14 6 31 39 34 65 32 80 -6 44 -21 -20 -27 -21 -34
-9 -5 8 -10 18 -10 21 0 13 -30 18 -31 6z m18 -39 c-3 -7 -5 -2 -5 12 0 14 2
19 5 13 2 -7 2 -19 0 -25z m62 -3 c-21 -36 -31 -44 -26 -23 2 11 37 58 43 58
2 0 -6 -16 -17 -35z m-83 -30 c10 -8 14 -15 8 -15 -5 0 -19 7 -30 15 -10 8
-14 15 -8 15 5 0 19 -7 30 -15z m261 -17 c-3 -7 -5 -2 -5 12 0 14 2 19 5 13 2
-7 2 -19 0 -25z m73 -12 c0 -2 -7 -7 -16 -10 -8 -3 -12 -2 -9 4 6 10 25 14 25
6z m-231 -38 c-6 -12 -15 -33 -20 -47 -6 -23 -7 -21 -6 11 1 20 5 34 8 32 4
-2 9 3 13 11 3 8 8 15 11 15 3 0 0 -10 -6 -22z m-99 -8 c4 0 10 -7 14 -15 5
-14 2 -13 -24 0 -31 16 -42 32 -14 21 9 -3 19 -6 24 -6z m197 -47 c-3 -10 -5
-2 -5 17 0 19 2 27 5 18 2 -10 2 -26 0 -35z m126 30 c-7 -2 -21 -2 -30 0 -10
3 -4 5 12 5 17 0 24 -2 18 -5z m-469 -48 c3 -8 1 -15 -4 -15 -6 0 -10 7 -10
15 0 8 2 15 4 15 2 0 6 -7 10 -15z m87 -27 c7 -14 6 -16 -6 -12 -8 4 -15 10
-15 14 0 5 -3 17 -6 27 -5 15 -4 16 5 3 7 -8 16 -23 22 -32z m179 12 c-24 -15
-36 -11 -14 4 10 8 21 12 24 10 2 -3 -2 -9 -10 -14z m-290 -16 c0 -2 -11 -4
-25 -4 -14 0 -25 4 -25 9 0 4 11 6 25 3 14 -2 25 -6 25 -8z m458 9 c-16 -2
-40 -2 -55 0 -16 2 -3 4 27 4 30 0 43 -2 28 -4z m-264 -18 c-4 -8 -7 -15 -9
-15 -2 0 -5 7 -9 15 -3 9 0 15 9 15 9 0 12 -6 9 -15z m-139 -45 c3 -5 21 -7
40 -5 19 3 36 1 39 -4 3 -5 0 -9 -7 -8 -44 1 -76 -5 -93 -19 -10 -8 -13 -13
-7 -9 9 4 11 1 7 -10 -5 -13 -9 -12 -25 6 -23 27 -23 29 -1 45 20 16 39 18 47
4z m-313 -48 c-6 -2 -8 -11 -5 -20 4 -13 3 -14 -6 -6 -9 8 -9 17 1 39 11 24
14 26 17 10 2 -11 -1 -21 -7 -23z m396 19 c10 -6 10 -10 -2 -21 -18 -14 -12
-30 12 -30 15 0 15 2 2 10 -8 5 -10 10 -4 10 6 0 18 -8 25 -17 7 -10 10 -15 5
-11 -5 4 -15 1 -23 -7 -17 -17 -49 -20 -58 -5 -8 13 -72 13 -81 -1 -4 -8 -9
-8 -17 0 -16 16 -5 22 43 24 23 1 37 3 31 5 -13 4 -5 22 10 22 6 0 8 -4 5 -8
-2 -4 -1 -14 5 -22 7 -12 9 -11 10 5 1 11 2 25 4 30 1 6 3 13 3 18 2 9 14 9
30 -2z m-482 -13 c5 -7 3 -8 -6 -3 -9 5 -10 1 -6 -16 6 -20 5 -21 -4 -6 -6 9
-8 22 -5 27 8 13 12 13 21 -2z m337 -3 c4 -8 2 -17 -2 -20 -5 -2 -11 4 -14 15
-6 23 8 27 16 5z m-171 -63 c-2 -16 -9 -29 -16 -29 -10 0 -11 7 -2 29 6 15 13
28 16 28 4 0 5 -13 2 -28z m565 22 c-3 -3 -12 -4 -19 -1 -8 3 -5 6 6 6 11 1
17 -2 13 -5z m-191 -31 c7 -10 14 -28 14 -40 0 -27 7 -29 32 -6 17 15 18 15
18 -5 0 -26 -59 -112 -77 -112 -16 0 -18 86 -3 126 7 19 7 30 -1 40 -6 8 -8
14 -4 14 4 0 14 -8 21 -17z m-262 -55 c-9 -14 -22 15 -23 47 0 16 2 15 15 -8
8 -15 12 -33 8 -39z m641 52 c4 -6 -6 -10 -22 -10 -22 0 -25 2 -13 10 19 12
27 12 35 0z m-935 -16 c59 -24 44 -26 -25 -5 -33 11 -50 20 -38 20 13 1 41 -6
63 -15z m707 10 c-3 -3 -12 -4 -19 -1 -8 3 -5 6 6 6 11 1 17 -2 13 -5z m102
-45 c15 -42 5 -36 -20 13 -16 31 -17 39 -6 30 8 -7 20 -26 26 -43z m-369 20
c10 -5 -3 -8 -37 -9 -43 0 -51 3 -46 16 6 16 50 12 83 -7z m160 7 c0 -3 -4 -8
-10 -11 -5 -3 -10 -1 -10 4 0 6 5 11 10 11 6 0 10 -2 10 -4z m290 -40 c0 -12
-5 -7 -19 24 -11 24 -11 24 3 6 9 -11 16 -24 16 -30z m-726 0 c-3 -15 -8 -25
-11 -23 -2 3 -1 17 3 31 3 15 8 25 11 23 2 -3 1 -17 -3 -31z m475 -8 c-5 -10
-12 -18 -15 -18 -2 0 -1 8 4 18 5 9 7 24 5 32 -4 13 -3 13 6 1 6 -10 6 -21 0
-33z m-116 8 c-3 -16 -10 -23 -19 -19 -9 3 -14 -3 -15 -18 l-2 -24 -4 23 c-4
21 -9 23 -39 20 -46 -5 -38 12 12 28 62 19 72 17 67 -10z m-214 -51 c0 -5 -4
-3 -9 5 -5 8 -9 22 -9 30 0 16 17 -16 18 -35z m448 -2 c-2 -2 -16 3 -30 10
-15 8 -24 17 -21 20 4 3 17 -1 30 -10 14 -9 23 -17 21 -20z m-705 -1 c7 -7 20
-12 29 -12 9 0 23 -8 30 -17 12 -16 12 -17 -1 -7 -8 7 -48 20 -87 29 -40 10
-73 21 -73 25 0 11 89 -5 102 -18z m587 16 c-2 -2 -19 -16 -38 -33 l-34 -30
23 33 c13 17 30 32 39 32 8 0 12 -1 10 -2z m-479 -43 c0 -5 -5 -3 -10 5 -5 8
-10 20 -10 25 0 6 5 3 10 -5 5 -8 10 -19 10 -25z m480 5 c0 -11 -3 -20 -7 -20
-5 -1 -21 -11 -37 -25 -25 -20 -27 -26 -17 -39 10 -12 9 -17 -9 -26 -11 -6
-18 -15 -15 -19 8 -13 -22 -33 -42 -28 -14 4 -14 5 4 6 12 0 25 6 29 12 4 8 0
9 -15 4 -58 -18 -38 29 48 111 51 49 61 53 61 24z m-134 -12 c5 -17 -2 -29
-37 -60 -24 -20 -40 -38 -35 -38 12 0 -14 -30 -27 -30 -6 0 -3 6 6 13 15 10
12 12 -23 11 -35 -2 -39 0 -30 16 7 13 6 20 -3 23 -7 3 -4 6 6 6 14 1 17 -4
12 -21 -7 -23 -7 -23 9 -3 22 29 20 35 -14 35 -49 0 -36 30 22 47 34 10 37 9
42 -13 8 -31 26 -31 26 -1 0 42 34 53 46 15z m151 0 c-3 -8 -6 -5 -6 6 -1 11
2 17 5 13 3 -3 4 -12 1 -19z m-702 -40 c22 -23 31 -36 21 -28 -11 8 -21 14
-23 13 -1 -2 -4 0 -4 5 -1 4 -10 13 -20 20 -16 11 -26 32 -16 32 2 0 21 -19
42 -42z m585 14 c0 -4 -12 -21 -27 -38 -16 -17 -22 -23 -15 -14 22 29 13 34
-15 9 l-28 -24 24 27 c13 15 29 26 35 25 6 -1 10 4 9 11 -2 6 2 12 7 12 6 0
10 -4 10 -8z m196 -13 c19 -22 19 -22 -3 -10 -13 6 -23 16 -23 21 0 15 5 12
26 -11z m-898 -25 c-4 -3 -12 5 -18 18 -12 22 -12 22 6 6 10 -10 15 -20 12
-24z m771 5 c-16 -10 -23 -4 -14 10 3 6 11 8 17 5 6 -4 5 -9 -3 -15z m71 -8
c0 -11 -4 -23 -10 -26 -6 -4 -10 5 -10 19 0 14 5 26 10 26 6 0 10 -9 10 -19z
m-576 2 c-5 -5 -12 -12 -15 -16 -3 -5 -9 -2 -12 7 -5 12 0 16 15 16 12 0 17
-3 12 -7z m-247 -25 c2 -17 0 -19 -7 -8 -5 8 -6 18 -4 22 8 12 10 10 11 -14z
m759 -3 c-3 -23 -12 -26 -13 -5 -1 11 2 20 7 20 4 0 7 -7 6 -15z m-663 -32
c-7 -2 -21 -2 -30 0 -10 3 -4 5 12 5 17 0 24 -2 18 -5z m114 1 c-3 -3 -12 -4
-19 -1 -8 3 -5 6 6 6 11 1 17 -2 13 -5z m-252 -12 l-30 -5 30 -7 30 -8 -32 -1
c-23 -1 -33 4 -33 14 0 11 10 15 33 14 l32 -2 -30 -5z m128 -29 c-7 -2 -19 -2
-25 0 -7 3 -2 5 12 5 14 0 19 -2 13 -5z m707 -18 c17 -20 -8 -29 -41 -15 -21
9 -20 9 11 5 33 -6 34 -5 16 10 -11 8 -15 15 -9 15 6 0 16 -7 23 -15z m-127
-2 c-7 -2 -19 -2 -25 0 -7 3 -2 5 12 5 14 0 19 -2 13 -5z m-436 -17 c-3 -8 -1
-17 6 -20 7 -2 4 -5 -5 -5 -10 -1 -18 1 -18 3 0 10 13 36 17 36 3 0 3 -6 0
-14z m288 -26 c4 -6 -6 -10 -22 -9 -25 0 -26 1 -8 9 11 5 21 9 22 9 1 1 5 -3
8 -9z m196 -4 c9 5 11 0 13 -28 1 -7 6 -16 11 -20 6 -4 2 -8 -8 -8 -14 0 -17
5 -12 21 5 15 4 19 -4 15 -6 -4 -11 -5 -11 -2 0 2 -2 10 -3 18 -2 7 -2 10 0 5
3 -4 9 -5 14 -1z m-736 -6 c-3 -5 -11 -10 -16 -10 -6 0 -7 5 -4 10 3 6 11 10
16 10 6 0 7 -4 4 -10z m94 -36 c-15 -18 -22 -13 -13 10 3 9 10 13 16 10 5 -3
4 -12 -3 -20z m192 3 c-10 -9 -11 -8 -5 6 3 10 9 15 12 12 3 -3 0 -11 -7 -18z
m203 -3 c3 -8 2 -12 -4 -9 -6 3 -10 10 -10 16 0 14 7 11 14 -7z m196 -16 c0
-6 -6 -5 -15 2 -8 7 -15 14 -15 16 0 2 7 1 15 -2 8 -4 15 -11 15 -16z m-485
-26 l-20 -5 20 -8 c13 -5 2 -7 -35 -7 l-55 0 40 13 c22 8 47 13 55 13 8 0 6
-3 -5 -6z m360 -2 c13 -6 15 -9 5 -9 -8 0 -22 4 -30 9 -18 12 -2 12 25 0z m85
-32 c10 -6 2 -8 -25 -4 -22 3 -49 6 -60 7 -17 1 -16 2 5 9 26 8 55 4 80 -12z
m-307 -78 c6 -29 5 -32 -5 -15 -6 11 -13 38 -14 60 -2 31 -1 35 5 15 4 -14 11
-41 14 -60z m-128 30 c-3 -5 -16 -10 -28 -9 -20 1 -20 2 3 9 14 4 26 8 28 9 2
1 0 -3 -3 -9z m237 -4 c6 4 3 -7 -8 -24 -22 -38 -28 -35 -18 10 4 18 9 27 11
20 3 -6 9 -9 15 -6z m68 -19 c0 -12 -4 -28 -8 -34 -5 -7 -8 4 -7 26 0 22 3 37
8 34 4 -2 7 -14 7 -26z m-355 3 c4 -6 -9 -10 -32 -9 -30 0 -34 2 -18 9 27 12
43 12 50 0z m496 -20 c5 0 9 -4 9 -8 0 -4 -16 -6 -36 -4 -25 3 -32 7 -23 13 8
5 20 7 27 4 8 -3 18 -5 23 -5z m-121 -24 c0 -2 -8 -10 -17 -17 -16 -13 -17
-12 -4 4 13 16 21 21 21 13z m-363 -20 c-3 -8 -1 -17 6 -20 7 -2 4 -5 -5 -5
-10 -1 -18 1 -18 3 0 10 13 36 17 36 3 0 3 -6 0 -14z m97 -22 c10 -37 2 -39
-11 -4 -6 17 -8 30 -3 30 4 0 11 -12 14 -26z m322 -21 c-3 -4 -12 -1 -19 7
-10 10 -9 11 2 5 10 -6 12 -2 7 16 l-6 24 12 -23 c6 -12 8 -25 4 -29z m-97 6
c-13 -26 -23 -18 -14 10 3 12 11 19 16 16 5 -4 5 -14 -2 -26z"/>
<path d="M5950 2950 l-25 -8 28 -1 c15 -1 27 4 27 9 0 6 -1 10 -2 9 -2 -1 -14
-5 -28 -9z"/>
<path d="M4510 3135 c-24 -24 -41 -47 -37 -51 9 -9 49 2 72 21 15 13 16 15 3
12 -21 -7 -18 16 7 43 36 40 -2 19 -45 -25z m6 -27 c4 -7 3 -8 -4 -4 -7 4 -12
2 -12 -3 0 -6 -5 -11 -11 -11 -8 0 -8 5 1 15 15 18 17 18 26 3z"/>
<path d="M4242 2967 c-6 -6 -14 -25 -17 -40 l-8 -29 -37 37 c-35 34 -38 35
-54 20 -18 -19 -20 -14 41 -105 12 -19 23 -45 23 -59 0 -22 -4 -20 -50 23 -87
82 -107 40 -31 -65 46 -63 64 -109 43 -109 -5 0 -17 9 -27 20 -25 28 -33 25
-41 -15 -3 -20 -11 -34 -17 -32 -16 5 -25 43 -26 109 -1 72 -15 111 -38 106
-10 -2 -19 -10 -20 -18 -1 -8 -5 -37 -8 -63 -5 -40 -9 -46 -21 -36 -10 8 -14
33 -14 80 0 58 -3 70 -20 79 -15 8 -21 6 -30 -9 -5 -11 -10 -30 -10 -44 0 -34
-10 -39 -38 -21 -27 18 -72 11 -72 -10 0 -8 11 -28 25 -44 14 -17 25 -32 25
-35 0 -3 -18 -8 -39 -12 -49 -8 -68 -27 -46 -45 10 -9 35 -10 84 -5 64 6 70 5
81 -14 8 -17 8 -21 -3 -21 -33 0 -117 -32 -117 -45 0 -20 17 -23 110 -17 71 4
88 2 99 -12 11 -14 10 -17 -14 -26 -14 -5 -32 -10 -38 -10 -7 -1 4 -14 23 -30
31 -27 32 -30 12 -30 -12 0 -54 16 -92 35 -92 46 -150 47 -104 1 9 -9 31 -28
50 -42 67 -51 24 -61 -59 -14 -91 51 -131 32 -62 -29 19 -17 35 -32 35 -35 0
-2 -15 -10 -34 -16 -66 -22 -48 -78 22 -65 37 7 36 9 18 -43 -12 -33 -12 -43
-2 -52 22 -17 42 -2 66 50 24 51 55 88 66 77 4 -3 -1 -27 -10 -53 -22 -66 -21
-86 5 -82 15 2 35 27 64 78 55 96 97 126 76 53 -11 -39 -7 -44 30 -31 17 6 32
8 35 6 13 -14 -15 -39 -87 -79 -50 -28 -79 -50 -79 -61 0 -25 20 -27 79 -6 59
20 65 19 56 -5 -4 -9 -30 -20 -70 -27 -48 -9 -66 -17 -70 -31 -11 -32 4 -42
56 -37 54 6 54 6 38 -24 -32 -59 35 -97 69 -38 9 16 20 30 24 30 3 0 16 -16
28 -35 24 -38 60 -48 60 -16 0 10 -11 48 -24 83 -34 90 -21 107 37 45 24 -26
48 -47 54 -47 28 0 21 37 -22 111 -25 43 -45 88 -45 99 l0 21 26 -20 c34 -27
44 -26 44 2 0 12 4 28 9 35 17 27 33 -18 38 -105 6 -96 15 -118 43 -103 12 7
19 27 24 71 7 56 9 60 23 47 9 -10 17 -44 21 -89 6 -59 10 -74 24 -77 20 -4
38 32 38 73 l0 23 38 -21 c22 -11 46 -18 55 -14 25 9 21 47 -9 78 l-26 27 51
17 c50 16 66 37 37 48 -8 3 -42 2 -76 -3 -34 -5 -68 -6 -76 -3 -13 5 -15 10
-13 31 0 4 26 14 57 22 37 10 57 20 57 30 0 12 -18 15 -102 15 -82 0 -105 3
-119 17 -16 16 -15 17 20 23 48 10 52 18 17 48 -56 47 -5 51 79 6 110 -59 179
-32 80 31 -27 18 -50 36 -50 40 0 21 37 17 90 -10 100 -50 139 -34 71 28 l-42
38 36 17 c28 13 36 22 33 40 -3 20 -8 22 -55 20 l-52 -2 15 41 c8 23 12 48 10
55 -12 30 -37 10 -70 -56 -31 -60 -60 -91 -73 -77 -3 2 3 29 13 59 9 30 14 62
11 70 -13 33 -43 3 -84 -84 -28 -59 -48 -89 -59 -89 -13 0 -15 6 -10 35 7 38
3 41 -38 25 -22 -8 -26 -7 -26 10 0 12 30 40 86 81 74 53 84 63 71 76 -12 12
-22 11 -72 -11 -69 -31 -65 -31 -65 -7 0 13 23 35 62 63 35 24 64 51 66 60 4
23 -25 30 -58 13 -43 -22 -50 -19 -50 24 0 26 -5 41 -16 45 -23 9 -30 8 -42
-7z"/>
<path d="M6950 2835 c-8 -10 -10 -29 -6 -55 3 -22 4 -40 2 -40 -2 0 -23 7 -47
15 -51 18 -72 13 -67 -17 2 -16 20 -32 59 -53 68 -36 89 -53 89 -71 0 -10 -17
-7 -69 11 -62 21 -71 22 -82 8 -19 -23 -3 -39 90 -91 111 -62 140 -107 55 -83
-21 6 -39 9 -41 8 -1 -2 3 -20 9 -40 26 -85 -26 -52 -82 52 -52 97 -65 110
-86 89 -14 -13 -13 -21 5 -74 26 -71 26 -74 2 -74 -15 0 -21 12 -31 63 -15 80
-25 97 -55 97 -32 0 -34 -6 -25 -68 6 -46 4 -52 -9 -46 -32 14 -71 16 -85 5
-23 -19 -7 -60 32 -80 l36 -18 -42 -29 c-49 -34 -59 -54 -36 -71 13 -9 26 -8
68 9 90 36 106 40 123 34 13 -6 7 -17 -37 -61 -35 -35 -51 -59 -47 -69 10 -26
33 -19 123 34 75 44 124 62 124 44 0 -3 -9 -17 -20 -31 -28 -35 -26 -40 20
-47 36 -6 39 -8 28 -25 -9 -15 -29 -19 -117 -25 -117 -7 -141 -18 -117 -52 12
-16 27 -21 73 -23 66 -3 73 -6 51 -27 -9 -10 -42 -17 -91 -21 -41 -3 -81 -10
-89 -14 -25 -16 6 -43 60 -54 l50 -10 -19 -24 c-10 -13 -19 -38 -19 -57 0 -31
3 -34 28 -34 17 0 38 10 52 25 13 14 27 25 31 25 5 0 14 -19 20 -42 14 -50 32
-73 49 -63 9 5 10 31 5 94 -6 79 -5 88 13 105 20 18 21 17 32 -26 24 -92 32
-109 48 -106 15 3 17 18 14 117 -3 108 4 141 29 141 4 0 13 -19 19 -41 l11
-42 35 34 c29 28 36 31 44 19 12 -19 6 -38 -35 -120 -43 -85 -49 -108 -35
-125 19 -23 26 -19 71 45 23 33 45 60 50 60 23 0 17 -45 -16 -110 -20 -40 -35
-79 -33 -88 6 -31 41 -18 75 26 l32 43 20 -39 c24 -47 50 -61 68 -36 16 21 16
44 3 80 -10 26 -10 26 22 19 59 -14 92 -11 96 7 2 13 -17 28 -76 57 -71 36
-92 54 -92 81 0 4 29 -1 65 -12 72 -22 98 -19 93 12 -2 15 -28 32 -96 64 -87
39 -111 57 -112 80 0 4 20 5 44 2 l44 -7 -10 35 c-6 20 -8 39 -4 43 13 13 40
-13 102 -98 33 -46 67 -84 75 -84 24 0 21 41 -5 94 -32 62 -32 69 -2 64 16 -3
40 -28 72 -74 46 -68 76 -86 88 -54 3 8 -4 36 -14 61 -11 25 -20 47 -20 49 0
1 19 0 43 -2 32 -4 46 -1 56 11 22 27 0 63 -44 72 -19 3 -35 9 -35 12 0 3 16
23 36 43 38 39 41 69 6 69 -10 0 -47 -20 -81 -43 -45 -32 -69 -43 -88 -39 -24
5 -24 6 26 56 53 54 63 79 35 90 -18 7 -35 -3 -128 -71 -56 -41 -89 -53 -100
-34 -3 4 6 19 19 31 34 32 32 39 -15 46 -22 4 -40 10 -40 14 0 20 33 29 127
35 104 8 131 19 120 49 -4 10 -29 17 -76 22 -39 3 -71 10 -71 15 0 18 42 29
109 29 60 0 72 3 81 20 16 29 6 37 -50 45 -28 4 -50 9 -50 11 0 3 10 18 22 34
18 25 20 33 10 55 -15 33 -29 32 -74 -5 l-37 -31 -16 56 c-13 42 -21 55 -33
53 -14 -3 -17 -18 -18 -92 -2 -82 -9 -105 -34 -106 -3 0 -14 32 -24 71 -14 54
-22 69 -34 67 -14 -3 -17 -20 -20 -115 -2 -82 -6 -114 -17 -123 -12 -10 -17
-7 -25 15 -5 14 -10 31 -10 36 0 16 -16 10 -40 -16 -45 -48 -42 -5 6 83 44 82
54 131 28 139 -6 2 -34 -23 -62 -57 -44 -52 -51 -57 -57 -40 -4 13 7 44 34 94
41 73 45 106 13 106 -8 0 -31 -18 -50 -41 l-35 -41 -21 44 c-23 46 -45 58 -66
33z"/>
<path d="M6021 2208 c-13 -21 -14 -21 -27 -4 -19 27 -46 13 -38 -19 6 -24 4
-25 -19 -20 -27 7 -45 -9 -25 -22 7 -4 26 -12 42 -18 42 -14 42 -30 1 -30 -54
0 -46 -16 18 -38 52 -17 69 -37 31 -37 -11 0 -13 -6 -9 -20 9 -30 -18 -15 -50
26 -38 50 -74 46 -39 -4 26 -38 5 -40 -26 -3 -30 35 -59 36 -40 1 13 -25 13
-30 -4 -30 -7 0 -19 -7 -26 -15 -10 -12 -8 -16 14 -25 23 -8 25 -13 16 -30
-20 -38 -5 -43 32 -11 40 35 59 27 28 -12 -38 -47 -15 -52 37 -7 33 29 82 45
55 18 -18 -18 -15 -28 11 -29 21 0 21 -1 2 -9 -11 -4 -38 -12 -59 -16 -56 -13
-59 -34 -5 -34 50 0 44 -11 -14 -25 -46 -11 -52 -28 -12 -33 22 -3 24 -6 14
-24 -16 -30 5 -47 30 -24 19 18 20 17 27 -8 11 -44 29 -24 26 28 -3 53 9 61
23 14 16 -52 30 -34 27 32 -2 38 0 60 7 60 6 0 11 -7 11 -15 0 -20 10 -19 26
3 13 16 13 16 14 -1 0 -10 -7 -34 -15 -54 -27 -64 -11 -89 21 -34 10 17 21 28
26 25 4 -3 -4 -21 -18 -40 -21 -27 -24 -37 -15 -47 10 -9 16 -7 31 11 18 22
19 22 25 2 9 -27 39 -22 43 7 3 19 8 21 33 16 42 -8 37 12 -11 42 -22 14 -40
29 -40 33 0 4 19 6 41 4 53 -5 49 16 -7 35 -21 8 -46 20 -54 28 -13 13 -12 15
9 15 18 0 21 4 16 20 -10 32 11 23 45 -20 45 -57 82 -53 44 6 -26 39 -9 39 27
0 34 -38 60 -36 40 2 -15 28 -14 30 12 34 12 2 22 10 22 18 0 8 -10 16 -22 18
-27 4 -29 14 -8 32 8 7 15 16 15 21 0 17 -27 9 -50 -16 -21 -23 -50 -34 -50
-19 0 3 9 18 21 32 30 38 6 40 -37 3 -33 -30 -84 -47 -56 -19 18 18 15 28 -8
28 -11 0 -20 4 -20 9 0 10 6 12 78 31 53 14 54 30 2 30 -46 0 -54 17 -12 26
70 15 94 44 36 44 -21 0 -23 4 -18 24 8 32 -10 41 -34 16 l-19 -20 -11 25
c-20 44 -33 29 -26 -30 8 -63 1 -70 -20 -20 -8 19 -20 35 -27 35 -11 0 -10
-10 8 -102 6 -31 -11 -39 -22 -10 -6 16 -7 16 -20 -1 -21 -29 -25 -5 -10 48
18 57 18 65 5 65 -5 0 -17 -14 -26 -31 -23 -45 -38 -23 -20 28 19 54 4 74 -23
31z"/>
<path d="M6071 1077 c-6 -8 -14 -30 -18 -50 l-8 -37 -38 31 c-37 30 -67 33
-67 6 0 -8 23 -40 51 -72 30 -34 48 -63 45 -72 -3 -8 -6 -17 -6 -20 0 -3 -23
14 -50 37 -50 42 -80 47 -80 15 0 -9 29 -49 65 -90 41 -48 62 -80 59 -90 -8
-19 -11 -19 -42 6 l-27 21 -5 -33 c-6 -37 -24 -48 -38 -22 -5 10 -17 57 -27
106 -10 48 -22 90 -27 93 -21 13 -33 -18 -30 -81 6 -105 -33 -78 -58 39 -13
59 -18 71 -35 71 -17 0 -20 -8 -23 -52 -2 -29 -5 -53 -8 -53 -3 0 -18 8 -32
19 -20 13 -33 16 -49 10 -32 -12 -29 -42 8 -73 27 -23 29 -27 12 -32 -85 -31
-96 -41 -69 -63 10 -8 33 -8 90 1 57 9 79 9 88 0 8 -8 -4 -18 -50 -38 -34 -15
-62 -32 -62 -39 0 -30 25 -32 119 -13 85 18 95 18 109 4 14 -14 14 -16 1 -16
-8 0 -25 -7 -38 -16 l-23 -17 31 -19 c32 -21 33 -38 2 -38 -9 0 -55 14 -101
30 -73 27 -85 29 -98 16 -19 -19 -11 -30 48 -62 85 -46 58 -59 -47 -22 -51 19
-64 20 -77 9 -19 -16 -8 -34 36 -57 35 -18 35 -25 -2 -46 -32 -18 -41 -55 -15
-64 9 -4 33 -2 54 4 l39 9 -5 -53 c-5 -45 -3 -54 10 -54 18 0 39 34 57 97 11
37 42 65 56 51 2 -2 -1 -32 -7 -67 -6 -34 -8 -65 -5 -69 16 -15 43 20 69 89
30 78 43 99 61 99 7 0 10 -14 8 -41 l-4 -41 30 16 c38 19 42 20 42 2 0 -7 -29
-35 -64 -62 -71 -53 -96 -88 -79 -105 7 -7 29 -1 71 20 34 17 64 31 66 31 18
0 -18 -47 -58 -78 -59 -44 -75 -67 -60 -82 7 -7 24 -5 55 9 l44 20 3 -39 c6
-72 53 -77 74 -9 l11 40 32 -31 c69 -67 89 -16 25 65 -37 46 -51 85 -32 85 4
0 26 -18 47 -40 21 -22 47 -40 57 -40 33 0 20 41 -37 115 -68 89 -76 133 -15
85 35 -27 40 -25 40 15 0 19 4 35 9 35 20 0 31 -31 40 -115 6 -49 16 -92 23
-96 22 -14 38 12 38 60 0 52 10 73 28 62 10 -6 10 -21 -2 -74 -11 -55 -11 -69
0 -78 25 -21 49 -6 58 39 6 23 13 42 16 42 4 0 17 -11 29 -24 27 -29 59 -24
67 11 5 17 0 31 -17 49 -12 13 -21 24 -18 25 64 12 94 26 94 44 0 18 -10 21
-82 30 -107 13 -120 26 -49 48 61 19 86 41 68 59 -8 8 -38 8 -109 1 -103 -12
-135 -4 -99 22 10 8 24 16 30 19 6 2 -2 15 -19 29 -28 24 -29 26 -10 33 13 5
50 -3 108 -24 49 -17 93 -29 98 -26 5 3 9 15 9 28 0 17 -12 28 -50 46 -27 13
-50 27 -50 31 0 19 42 17 101 -4 35 -14 70 -22 77 -20 25 9 11 41 -30 66 l-41
24 31 18 c34 21 47 52 30 73 -12 13 -41 12 -82 -4 -16 -6 -18 -2 -15 47 4 48
2 54 -15 54 -16 0 -24 -14 -39 -65 -21 -72 -32 -90 -54 -90 -13 0 -14 12 -8
69 12 119 -23 99 -70 -39 -14 -41 -31 -77 -38 -82 -25 -16 -32 -8 -29 32 4 44
0 47 -38 25 -33 -19 -40 -18 -40 4 0 10 17 33 38 51 75 64 112 104 112 122 0
26 -26 22 -82 -12 -57 -35 -58 -36 -58 -11 0 11 24 40 55 66 58 50 72 85 34
85 -12 0 -37 -9 -55 -21 l-34 -21 0 35 c0 33 -20 67 -39 67 -5 0 -14 -6 -20
-13z"/>
</g>
</svg>
