<?xml version="1.0" encoding="utf-8"?>
<!-- Generator: Adobe Illustrator 19.1.0, SVG Export Plug-In . SVG Version: 6.00 Build 0)  -->
<svg version="1.1" id="Layer_1" xmlns="http://www.w3.org/2000/svg" xmlns:xlink="http://www.w3.org/1999/xlink" x="0px" y="0px"
	 viewBox="0 0 256 256" enable-background="new 0 0 256 256" xml:space="preserve">
<g>
	<g>
		<rect x="126" y="148" width="4" height="8"/>
	</g>
	<g>
		<rect x="126" y="100" width="4" height="8"/>
	</g>
	<g>
		<rect x="100" y="126" width="8" height="4"/>
	</g>
	<g>
		<rect x="148" y="126" width="8" height="4"/>
	</g>
	<g>
		<rect x="140.968" y="142.97" transform="matrix(0.7071 0.7071 -0.7071 0.7071 144.961 -60.0484)" width="8.004" height="4"/>
	</g>
	<g>
		<rect x="107.028" y="109.03" transform="matrix(0.7071 0.7071 -0.7071 0.7071 111.0233 -45.9903)" width="8.004" height="4"/>
	</g>
	<g>
		<rect x="109.03" y="140.968" transform="matrix(0.7071 0.7071 -0.7071 0.7071 135.0292 -36.0495)" width="4" height="8.004"/>
	</g>
	<g>
		<rect x="142.97" y="107.028" transform="matrix(0.7071 0.7071 -0.7071 0.7071 120.9707 -69.9891)" width="4" height="8.004"/>
	</g>
	<g>
		<g>
			<g>
				<path d="M153.473,196.04c-7.24,0-15.424-2.77-23.984-8.229c-13.369-8.525-26.188-22.671-36.095-39.831
					s-15.748-35.333-16.447-51.174C76.228,80.498,81.041,68.51,90.5,63.048s22.249-3.635,36.012,5.141
					c13.369,8.525,26.188,22.671,36.095,39.831s15.748,35.333,16.447,51.174c0.719,16.308-4.095,28.296-13.554,33.757
					C161.925,195.016,157.872,196.04,153.473,196.04z M102.551,63.96c-3.711,0-7.094,0.845-10.051,2.552
					c-8.104,4.678-12.208,15.374-11.558,30.117c0.671,15.21,6.323,32.737,15.916,49.351c9.592,16.614,21.943,30.271,34.78,38.458
					c12.443,7.935,23.757,9.727,31.861,5.05c8.104-4.678,12.208-15.374,11.558-30.117c-0.671-15.21-6.323-32.737-15.916-49.351
					c-9.592-16.614-21.943-30.271-34.78-38.458C116.458,66.522,109.01,63.96,102.551,63.96z"/>
			</g>
		</g>
		<g>
			<g>
				<path d="M102.527,196.04c-4.4,0-8.451-1.023-12.027-3.088c-9.459-5.461-14.272-17.45-13.554-33.757
					c0.699-15.841,6.54-34.015,16.447-51.174s22.726-31.305,36.095-39.831c13.762-8.775,26.553-10.604,36.012-5.141
					c9.459,5.461,14.272,17.45,13.554,33.757c-0.699,15.841-6.54,34.015-16.447,51.174s-22.726,31.305-36.095,39.831
					C117.952,193.269,109.768,196.04,102.527,196.04z M153.449,63.96c-6.459,0-13.906,2.562-21.811,7.602
					c-12.837,8.187-25.188,21.844-34.78,38.458c-9.593,16.614-15.245,34.14-15.916,49.351c-0.65,14.743,3.454,25.439,11.558,30.117
					c8.102,4.677,19.417,2.885,31.861-5.05c12.837-8.187,25.188-21.844,34.78-38.458c9.593-16.614,15.245-34.14,15.916-49.351
					c0.65-14.743-3.454-25.439-11.558-30.117C160.544,64.806,157.159,63.96,153.449,63.96z"/>
			</g>
		</g>
		<g>
			<g>
				<path d="M128,167.96c-19.814,0-38.474-4.029-52.541-11.344C60.976,149.085,53,138.922,53,128s7.976-21.085,22.459-28.616
					C89.526,92.069,108.186,88.04,128,88.04s38.474,4.029,52.541,11.344C195.024,106.915,203,117.078,203,128
					s-7.976,21.085-22.459,28.616C166.474,163.931,147.814,167.96,128,167.96z M128,92.04c-39.149,0-71,16.131-71,35.96
					s31.851,35.96,71,35.96s71-16.131,71-35.96S167.149,92.04,128,92.04z"/>
			</g>
		</g>
	</g>
	<g>
		<circle fill="#FF8C1A" cx="128" cy="128" r="15"/>
		<path d="M128,145c-9.374,0-17-7.626-17-17s7.626-17,17-17s17,7.626,17,17S137.374,145,128,145z M128,115c-7.168,0-13,5.832-13,13
			s5.832,13,13,13s13-5.832,13-13S135.168,115,128,115z"/>
	</g>
</g>
</svg>
